<?xml version="1.0" standalone="no"?>
<!DOCTYPE svg PUBLIC "-//W3C//DTD SVG 20010904//EN"
 "http://www.w3.org/TR/2001/REC-SVG-20010904/DTD/svg10.dtd">
<svg version="1.0" xmlns="http://www.w3.org/2000/svg"
 width="360.000000pt" height="320.000000pt" viewBox="0 0 1600.000000 1200.000000"
 preserveAspectRatio="xMidYMid meet">

<g transform="translate(0.000000,1200.000000) scale(0.100000,-0.100000)"
fill="#B74646" stroke="none">
<path d="M7810 10645 c-10 -12 -11 -56 -6 -196 4 -100 10 -187 12 -194 8 -20
33 -26 56 -14 20 11 21 17 16 200 -5 194 -11 219 -48 219 -10 0 -23 -7 -30
-15z"/>
<path d="M8089 10643 c-11 -12 -15 -64 -18 -204 -3 -177 -2 -188 16 -198 15
-7 25 -6 40 4 19 13 21 29 28 200 8 194 4 215 -35 215 -10 0 -24 -7 -31 -17z"/>
<path d="M7541 10632 l-20 -17 17 -188 c17 -188 22 -206 59 -207 24 0 44 31
38 63 -2 18 -9 93 -15 167 -13 165 -15 177 -39 190 -14 7 -24 5 -40 -8z"/>
<path d="M8370 10630 c-11 -11 -20 -30 -20 -42 0 -13 -7 -92 -14 -177 -15
-160 -12 -191 22 -191 42 1 46 14 63 202 10 106 13 190 8 199 -14 27 -38 30
-59 9z"/>
<path d="M7253 10593 c-9 -24 42 -370 57 -388 16 -19 44 -19 60 1 11 12 8 47
-14 197 -15 100 -32 187 -38 194 -15 19 -58 16 -65 -4z"/>
<path d="M8641 10597 c-6 -8 -23 -95 -38 -195 -22 -149 -24 -184 -14 -196 16
-20 45 -21 60 -2 14 17 66 367 58 389 -8 20 -50 22 -66 4z"/>
<path d="M6990 10550 c-12 -12 -19 -28 -16 -38 3 -9 19 -84 36 -167 37 -182
42 -195 74 -195 50 0 50 16 9 211 -32 149 -43 185 -60 196 -19 13 -24 12 -43
-7z"/>
<path d="M8922 10552 c-28 -24 -100 -365 -82 -387 19 -23 59 -19 69 8 15 39
78 352 73 365 -8 25 -39 33 -60 14z"/>
<path d="M6711 10482 c-7 -14 3 -64 38 -194 27 -97 52 -181 55 -187 10 -16 51
-14 66 4 10 12 3 49 -36 191 -27 98 -55 183 -62 191 -19 19 -50 16 -61 -5z"/>
<path d="M9181 10483 c-5 -10 -30 -96 -56 -191 -39 -140 -45 -175 -35 -187 14
-17 56 -20 65 -5 3 6 28 90 55 187 52 188 53 213 5 213 -13 0 -28 -8 -34 -17z"/>
<path d="M6452 10408 c-19 -19 -16 -32 45 -212 46 -134 62 -171 80 -179 26
-12 53 5 53 34 0 22 -109 339 -123 357 -12 15 -39 16 -55 0z"/>
<path d="M9451 10406 c-14 -16 -121 -332 -121 -357 0 -27 27 -44 53 -32 31 15
148 354 131 380 -14 23 -47 28 -63 9z"/>
<path d="M6198 10319 c-10 -6 -18 -18 -18 -27 -1 -32 134 -354 152 -363 25
-14 58 6 57 34 -1 38 -132 339 -154 353 -14 9 -25 10 -37 3z"/>
<path d="M9717 10316 c-18 -18 -147 -330 -147 -356 0 -22 31 -43 53 -34 17 6
20 13 98 202 32 78 59 151 59 162 0 11 -9 24 -19 30 -25 13 -27 13 -44 -4z"/>
<path d="M5931 10191 c-9 -15 5 -52 71 -190 79 -166 96 -189 131 -175 34 13
27 40 -50 199 -42 88 -81 166 -86 173 -14 18 -55 14 -66 -7z"/>
<path d="M9966 10203 c-22 -22 -166 -339 -161 -354 8 -24 42 -34 62 -18 8 8
51 87 94 177 63 132 77 168 68 183 -10 19 -49 26 -63 12z"/>
<path d="M5692 10078 c-7 -7 -12 -20 -12 -30 0 -25 170 -327 190 -338 19 -10
60 12 60 32 0 17 -171 321 -188 336 -20 15 -35 15 -50 0z"/>
<path d="M10213 10078 c-33 -42 -184 -330 -180 -342 10 -24 42 -37 60 -23 22
16 187 313 187 335 0 36 -46 56 -67 30z"/>
<path d="M5452 9938 c-6 -6 -12 -20 -12 -29 0 -10 44 -86 98 -171 89 -137 102
-153 127 -153 62 0 55 23 -56 197 -104 163 -127 186 -157 156z"/>
<path d="M10364 9803 c-53 -80 -101 -157 -106 -169 -14 -29 4 -54 37 -54 19 0
42 30 124 157 56 86 101 163 101 173 0 9 -5 21 -12 28 -30 30 -49 12 -144
-135z"/>
<path d="M7810 9904 c-181 -12 -343 -29 -475 -50 -1272 -207 -2368 -1022
-2925 -2177 -235 -488 -354 -958 -380 -1508 -42 -899 234 -1782 785 -2509 240
-316 536 -602 868 -837 938 -666 2128 -890 3252 -613 1317 324 2379 1300 2804
2575 199 599 246 1225 140 1870 -84 509 -295 1040 -592 1485 -656 983 -1713
1621 -2892 1745 -136 14 -485 26 -585 19z m675 -153 c968 -132 1824 -603 2449
-1345 295 -350 547 -804 693 -1246 71 -216 129 -481 160 -730 25 -205 25 -668
0 -865 -97 -752 -380 -1402 -862 -1981 -554 -666 -1365 -1139 -2235 -1303
-255 -48 -360 -56 -710 -56 -351 0 -456 8 -710 56 -1185 224 -2194 984 -2724
2049 -202 407 -314 778 -372 1235 -26 199 -26 662 -1 865 55 438 161 800 349
1190 93 193 142 279 254 450 364 551 885 1011 1479 1307 425 213 881 343 1375
392 166 17 683 6 855 -18z"/>
<path d="M8275 9387 c-91 -45 -135 -113 -135 -212 0 -90 57 -174 142 -209 46
-20 148 -21 191 -3 140 59 188 230 98 354 -60 83 -201 116 -296 70z m162 -84
c96 -45 98 -199 4 -248 -73 -37 -158 -5 -187 70 -28 75 1 151 70 181 42 18 71
17 113 -3z"/>
<path d="M7424 9386 c-116 -19 -132 -24 -139 -45 -5 -15 32 -291 51 -378 6
-32 40 -48 72 -34 24 11 25 14 19 80 l-6 69 37 4 c33 4 44 -1 109 -59 77 -66
83 -69 114 -53 36 20 24 63 -28 108 l-48 40 29 31 c40 41 48 129 17 178 -39
62 -103 78 -227 59z m130 -102 c24 -23 20 -71 -6 -88 -25 -16 -136 -37 -142
-27 -2 3 -7 32 -10 63 -7 54 -6 57 16 61 57 11 127 7 142 -9z"/>
<path d="M9111 9217 c-7 -9 -12 -90 -13 -231 -3 -205 -2 -219 17 -232 48 -35
68 -23 231 139 130 129 153 155 148 175 -8 28 -38 45 -64 37 -11 -3 -70 -59
-131 -123 l-111 -117 6 160 c5 136 3 164 -10 183 -17 25 -56 29 -73 9z"/>
<path d="M6659 9169 c-58 -13 -185 -75 -192 -93 -7 -17 114 -311 148 -363 15
-23 49 -30 71 -15 21 13 21 37 3 85 -11 26 -19 49 -19 51 0 2 19 11 43 21 97
42 137 91 137 168 0 99 -91 169 -191 146z m73 -106 c23 -21 24 -75 1 -95 -15
-14 -87 -48 -99 -48 -5 0 -54 109 -54 119 0 10 81 39 109 40 14 1 33 -6 43
-16z"/>
<path d="M9867 8708 c-171 -217 -181 -233 -159 -264 11 -16 224 -174 234 -174
23 0 48 23 48 44 0 18 -22 40 -89 91 l-89 68 25 34 c14 18 29 33 33 33 4 0 36
-22 72 -49 81 -61 108 -68 128 -32 15 29 6 43 -70 101 -39 29 -70 56 -70 60 0
12 41 60 51 60 5 0 44 -27 87 -60 44 -33 88 -60 99 -60 28 0 47 25 39 52 -7
27 -220 188 -248 188 -10 0 -47 -37 -91 -92z"/>
<path d="M5923 8760 c-39 -16 -172 -121 -178 -141 -8 -24 -12 -18 123 -191
120 -154 140 -169 176 -132 23 23 20 46 -14 84 -16 19 -29 40 -29 45 0 6 22
27 49 47 59 45 83 88 83 145 0 103 -115 181 -210 143z m96 -116 c12 -15 21
-34 21 -42 0 -15 -84 -102 -98 -102 -6 1 -72 83 -80 101 -2 4 16 21 40 38 52
39 89 40 117 5z"/>
<path d="M7799 8640 c-551 -38 -1079 -245 -1519 -596 -201 -161 -434 -423
-574 -648 -58 -93 -67 -124 -40 -150 16 -17 61 -21 79 -8 6 4 45 59 86 122
331 506 830 878 1412 1054 471 142 1004 142 1474 0 583 -176 1081 -548 1412
-1054 41 -63 80 -118 86 -122 18 -13 63 -9 79 8 27 26 18 57 -43 155 -139 221
-372 483 -571 643 -536 428 -1209 641 -1881 596z"/>
<path d="M10423 8104 c-182 -139 -181 -136 -99 -236 72 -87 112 -116 177 -130
180 -37 325 152 242 316 -31 62 -123 166 -146 166 -13 0 -87 -50 -174 -116z
m243 -111 c12 -63 -18 -119 -83 -152 -32 -16 -84 -13 -115 7 -35 23 -91 94
-81 103 5 4 53 41 107 82 l99 75 34 -41 c18 -23 36 -56 39 -74z"/>
<path d="M5210 8088 c-11 -12 -20 -29 -20 -37 0 -8 46 -100 103 -203 111 -205
127 -222 170 -179 l22 22 -28 50 -27 50 60 78 60 77 51 -10 c35 -7 55 -7 67 0
21 14 27 57 10 71 -15 12 -392 103 -425 103 -12 0 -31 -10 -43 -22z m180 -99
c25 -7 49 -16 54 -20 10 -9 -53 -91 -64 -84 -9 5 -70 111 -70 121 0 3 8 3 18
0 9 -2 37 -10 62 -17z"/>
<path d="M7593 7629 c-18 -5 -48 -25 -67 -44 -59 -58 -60 -146 -5 -210 71 -80
196 -72 263 19 31 40 29 130 -2 174 -40 56 -121 82 -189 61z m110 -79 c32 -25
43 -72 27 -111 -13 -30 -55 -59 -85 -59 -30 0 -72 29 -85 59 -37 89 67 170
143 111z"/>
<path d="M6893 7613 c-6 -16 36 -150 79 -251 16 -38 21 -43 45 -40 25 3 31 12
62 98 19 52 36 90 38 85 2 -6 19 -48 36 -95 31 -80 34 -85 62 -85 29 0 31 4
78 130 51 138 55 168 21 173 -29 4 -37 -10 -69 -113 -16 -49 -30 -85 -32 -80
-2 6 -19 51 -36 100 -31 86 -33 90 -62 90 -29 0 -31 -3 -64 -100 l-35 -99 -30
90 c-17 49 -35 95 -39 102 -12 18 -47 15 -54 -5z"/>
<path d="M7987 7623 c-4 -3 -7 -71 -7 -149 0 -138 1 -143 22 -150 28 -8 48 18
48 63 0 29 3 33 28 33 20 -1 36 -13 66 -51 28 -37 44 -49 60 -47 33 5 33 45 0
79 l-27 29 26 24 c33 31 42 66 28 108 -17 52 -54 68 -153 68 -47 0 -88 -3 -91
-7z m167 -69 c35 -35 3 -74 -61 -74 l-43 0 0 45 0 45 44 0 c27 0 51 -6 60 -16z"/>
<path d="M8417 7624 c-13 -13 -8 -279 5 -292 19 -19 182 -16 199 4 9 11 10 20
2 32 -7 13 -28 18 -81 20 l-71 3 -3 117 c-3 109 -4 117 -23 120 -12 2 -24 0
-28 -4z"/>
<path d="M8797 7623 c-4 -3 -7 -68 -7 -144 0 -156 1 -159 80 -159 70 0 125 19
161 56 28 29 33 43 37 91 3 48 0 64 -20 92 -36 52 -80 71 -169 71 -41 0 -79
-3 -82 -7z m174 -82 c62 -63 24 -151 -66 -151 l-45 0 0 90 0 90 41 0 c31 0 47
-6 70 -29z"/>
<path d="M6503 6690 c-133 -28 -174 -94 -181 -295 -5 -150 7 -233 42 -286 14
-21 83 -79 164 -137 77 -56 150 -114 161 -128 19 -24 21 -40 21 -159 0 -113
-3 -134 -17 -148 -27 -24 -66 -30 -112 -17 -50 13 -50 14 -54 200 l-2 145
-100 0 -100 0 0 -175 c0 -200 11 -247 70 -299 47 -41 91 -51 226 -51 174 0
238 30 276 129 15 38 18 78 18 231 0 251 1 248 -241 422 -68 49 -125 98 -132
113 -7 15 -12 72 -12 135 0 105 1 109 26 129 38 30 98 28 129 -4 24 -23 25
-29 25 -155 l0 -130 100 0 100 0 0 148 c0 161 -9 210 -47 261 -40 52 -99 73
-217 77 -56 2 -120 -1 -143 -6z"/>
<path d="M7390 6687 c-70 -16 -114 -47 -143 -100 -19 -37 -22 -61 -25 -197 -5
-180 6 -240 49 -293 16 -20 93 -82 170 -138 172 -124 172 -124 167 -290 -4
-143 -10 -153 -94 -153 -47 -1 -59 3 -75 23 -17 21 -19 40 -19 177 l0 154
-101 0 -101 0 4 -192 c3 -189 3 -194 30 -240 21 -34 41 -53 80 -72 48 -24 62
-26 183 -26 121 0 135 2 183 26 39 19 59 38 80 72 26 46 27 51 30 232 5 273 4
277 -208 430 -78 56 -148 113 -157 126 -12 18 -16 53 -17 140 -1 112 0 116 24
136 19 16 35 19 72 16 77 -8 78 -11 78 -169 l0 -139 105 0 105 0 0 135 c0 73
-5 157 -11 185 -14 63 -57 116 -119 143 -56 25 -210 32 -290 14z"/>
<path d="M9173 6690 c-56 -12 -96 -34 -126 -69 -51 -61 -52 -69 -52 -606 0
-559 0 -563 70 -624 48 -42 91 -51 235 -51 144 0 187 9 235 51 70 61 70 65 70
624 0 454 -2 504 -18 546 -21 54 -57 92 -112 115 -46 20 -234 29 -302 14z
m209 -200 c17 -21 18 -53 18 -474 0 -531 7 -496 -100 -496 -107 0 -100 -34
-100 493 0 298 4 455 11 468 15 29 47 39 103 35 37 -2 55 -9 68 -26z"/>
<path d="M4608 6020 l-3 -670 103 0 102 0 0 239 0 238 103 5 c119 5 180 27
220 79 43 57 49 104 45 374 -3 236 -4 252 -25 292 -48 88 -97 104 -345 110
l-198 4 -2 -671z m309 481 c50 -2 53 -17 53 -240 0 -160 -3 -211 -14 -226 -10
-14 -30 -20 -80 -23 l-66 -4 0 244 c0 135 2 247 4 249 2 2 22 3 43 2 21 -1 48
-2 60 -2z"/>
<path d="M5585 6668 c-3 -13 -39 -257 -80 -543 -41 -286 -83 -577 -93 -647
l-19 -128 97 0 97 0 7 63 c4 34 9 81 12 105 l6 43 107 -3 106 -3 6 -45 c4 -25
10 -71 13 -102 l7 -58 105 0 c103 0 104 0 99 23 -3 12 -46 303 -95 647 -50
344 -93 635 -95 648 -5 21 -9 22 -140 22 -131 0 -135 -1 -140 -22z m174 -578
c17 -146 34 -284 37 -307 l6 -43 -81 0 c-70 0 -81 2 -81 18 -1 47 74 611 80
605 4 -5 21 -127 39 -273z"/>
<path d="M8283 6682 l-163 -2 0 -665 0 -665 105 0 105 0 0 240 0 240 69 0
c151 0 232 35 273 119 22 44 23 55 23 311 0 240 -2 268 -19 300 -59 112 -108
127 -393 122z m192 -205 c12 -17 15 -60 15 -220 0 -197 0 -198 -25 -222 -20
-21 -34 -25 -80 -25 l-55 0 0 248 0 247 65 -3 c53 -3 68 -8 80 -25z"/>
<path d="M9933 6684 c-10 -5 -13 -148 -13 -670 l0 -664 105 0 105 0 0 265 0
265 68 0 c112 0 106 14 110 -279 l3 -251 105 0 105 0 -3 263 c-3 294 -7 313
-73 344 -19 9 -35 19 -35 22 0 3 14 14 31 23 18 11 39 37 52 65 20 44 22 63
22 243 0 215 -9 262 -63 313 -56 53 -90 60 -307 63 -110 2 -206 0 -212 -2z
m353 -198 c18 -13 19 -28 19 -200 0 -222 2 -218 -105 -224 l-70 -4 0 221 0
221 68 0 c43 0 75 -5 88 -14z"/>
<path d="M10780 6593 l0 -93 90 0 90 0 0 -575 0 -575 105 0 105 0 0 575 0 574
93 3 92 3 0 88 0 89 -287 1 -288 2 0 -92z"/>
<path d="M7898 4787 l-76 -153 -176 -24 c-97 -13 -175 -27 -174 -31 2 -4 37
-39 79 -78 l77 -71 83 0 84 1 -37 30 c-21 17 -38 34 -38 39 0 4 40 13 88 19
l89 12 38 80 c22 43 42 79 45 79 3 0 23 -36 45 -79 l38 -80 89 -12 c48 -6 88
-15 88 -18 0 -3 -17 -20 -37 -38 l-38 -32 83 -1 83 0 80 72 c43 39 79 75 79
78 0 3 -79 17 -176 30 l-176 24 -76 153 c-42 84 -79 153 -82 153 -3 0 -40 -69
-82 -153z"/>
<path d="M5666 4754 c-27 -26 -18 -57 40 -150 141 -225 374 -488 574 -647 538
-429 1194 -638 1862 -596 569 36 1092 238 1538 596 111 88 308 285 394 393 72
91 207 288 227 332 16 37 4 76 -26 84 -48 12 -68 -3 -125 -93 -90 -146 -198
-281 -330 -417 -218 -224 -422 -372 -705 -511 -250 -123 -488 -199 -755 -240
-160 -25 -495 -31 -662 -11 -385 44 -736 164 -1062 363 -318 193 -641 514
-836 828 -24 39 -48 73 -54 77 -19 13 -64 9 -80 -8z"/>
<path d="M7620 4285 l0 -55 40 0 40 0 0 -110 c0 -60 2 -110 5 -110 2 0 65 36
140 80 l136 80 134 -80 c74 -44 137 -80 140 -80 3 0 5 50 5 110 l0 110 40 0
40 0 0 55 0 55 -95 0 -95 0 0 -66 0 -65 -85 44 -85 44 -85 -44 -85 -44 0 65 0
66 -95 0 -95 0 0 -55z"/>
<path d="M10490 4201 c-58 -19 -93 -46 -155 -118 -49 -58 -65 -83 -63 -102 4
-35 280 -259 320 -260 53 -2 178 179 178 258 0 83 -49 165 -122 202 -44 23
-120 32 -158 20z m99 -106 c49 -25 81 -72 81 -119 0 -41 -10 -63 -56 -118
l-22 -27 -106 84 -107 83 33 38 c63 71 119 90 177 59z"/>
<path d="M5400 4108 c-102 -27 -191 -55 -199 -63 -18 -18 -7 -62 18 -70 11 -3
40 -1 65 6 26 6 48 10 50 8 32 -35 116 -144 116 -151 0 -5 -10 -26 -22 -47
-19 -33 -20 -43 -10 -65 11 -26 44 -35 68 -18 17 12 204 370 204 392 0 31 -35
60 -72 59 -18 -1 -116 -24 -218 -51z m170 -54 c0 -9 -65 -124 -70 -124 -8 0
-59 66 -62 80 -2 8 22 20 57 30 69 21 75 22 75 14z"/>
<path d="M9825 3607 c-83 -62 -111 -88 -113 -108 -2 -19 24 -61 110 -175 92
-121 118 -150 140 -152 22 -3 53 16 143 82 114 85 130 107 103 134 -23 23 -55
12 -138 -49 l-84 -62 -28 34 c-15 18 -28 36 -27 39 0 3 34 29 75 58 75 54 91
81 62 110 -21 21 -44 13 -119 -42 l-74 -55 -27 32 c-15 18 -28 34 -28 37 0 3
34 29 76 59 89 63 104 78 104 96 0 19 -28 45 -48 45 -9 0 -66 -38 -127 -83z"/>
<path d="M5956 3524 c-128 -170 -139 -199 -82 -219 26 -9 31 -6 70 37 l41 47
45 -34 c61 -46 119 -62 170 -46 51 15 97 62 111 114 18 68 -9 118 -106 194
-51 39 -90 62 -106 63 -23 0 -44 -23 -143 -156z m223 -1 c55 -47 36 -123 -31
-123 -28 0 -107 46 -108 63 0 4 17 30 37 57 40 54 42 54 102 3z"/>
<path d="M9292 3288 c-8 -8 -12 -62 -12 -177 l0 -166 -116 118 c-116 117 -143
134 -172 105 -33 -33 -15 -61 136 -211 125 -124 153 -147 179 -147 56 0 60 15
67 240 5 177 4 208 -9 228 -17 24 -54 29 -73 10z"/>
<path d="M6708 3278 c-17 -14 -158 -343 -158 -369 0 -24 25 -41 57 -37 22 2
33 13 53 54 l25 52 45 -20 c66 -29 137 -33 180 -11 101 53 109 204 14 264 -37
22 -171 79 -188 79 -7 0 -19 -6 -28 -12z m109 -113 c52 -22 73 -44 73 -77 0
-32 -31 -68 -60 -68 -17 0 -97 27 -109 37 -7 5 43 123 52 123 4 0 24 -7 44
-15z"/>
<path d="M7411 3042 c-5 -10 -22 -102 -36 -205 -30 -204 -28 -217 25 -217 36
0 47 15 56 78 6 51 7 52 40 52 39 0 43 -4 98 -95 39 -64 45 -70 76 -70 55 0
61 25 22 96 -19 33 -32 62 -30 63 1 1 16 10 31 20 70 43 91 156 41 216 -33 39
-69 54 -167 68 -110 17 -144 15 -156 -6z m227 -108 c26 -17 29 -59 5 -86 -17
-19 -71 -24 -133 -12 l-32 7 7 56 c4 31 9 59 11 62 6 10 117 -11 142 -27z"/>
<path d="M8367 3039 c-56 -13 -90 -33 -130 -78 -115 -127 -48 -330 123 -371
185 -44 348 128 286 303 -40 111 -162 175 -279 146z m138 -120 c48 -43 62 -97
40 -155 -48 -126 -220 -113 -256 19 -9 32 -7 48 6 84 22 56 63 83 127 83 39 0
54 -6 83 -31z"/>
<path d="M10698 9791 c-25 -9 -227 -292 -228 -318 0 -33 36 -49 60 -28 38 35
220 294 220 314 0 24 -28 41 -52 32z"/>
<path d="M5214 9776 c-3 -8 -4 -22 -2 -31 4 -22 210 -303 226 -310 24 -9 53
14 50 40 -2 14 -50 90 -108 170 -92 126 -109 145 -133 145 -15 0 -30 -6 -33
-14z"/>
<path d="M5000 9616 c-6 -8 -10 -24 -8 -34 4 -24 222 -290 245 -299 21 -8 47
9 51 33 2 12 -39 69 -109 154 -139 170 -151 179 -179 146z"/>
<path d="M10791 9483 c-67 -81 -121 -154 -121 -163 0 -21 20 -40 42 -40 22 0
258 281 258 307 0 24 -19 43 -41 43 -10 0 -68 -61 -138 -147z"/>
<path d="M4792 9438 c-7 -7 -12 -20 -12 -31 0 -21 255 -297 275 -297 21 0 45
40 35 59 -19 36 -254 281 -269 281 -10 0 -22 -5 -29 -12z"/>
<path d="M10991 9308 c-72 -78 -130 -149 -129 -156 2 -8 14 -22 27 -30 23 -16
25 -14 152 119 71 74 132 144 135 157 7 26 -11 52 -36 52 -10 0 -76 -62 -149
-142z"/>
<path d="M4590 9246 c-6 -8 -10 -24 -8 -34 2 -11 62 -76 135 -146 113 -109
136 -127 160 -124 22 2 29 9 31 29 3 22 -18 46 -137 158 -77 72 -146 131 -154
131 -8 0 -20 -7 -27 -14z"/>
<path d="M11187 9129 c-117 -112 -138 -136 -135 -158 2 -20 9 -27 31 -29 23
-3 46 15 155 119 70 68 131 133 136 146 11 25 -6 53 -33 53 -9 0 -78 -59 -154
-131z"/>
<path d="M4406 9044 c-17 -17 -20 -33 -8 -50 19 -28 285 -244 300 -244 23 0
42 19 42 41 0 20 -288 269 -311 269 -4 0 -15 -7 -23 -16z"/>
<path d="M11500 9043 c-75 -52 -280 -237 -280 -253 0 -25 26 -43 52 -36 30 8
292 237 296 258 3 15 -22 48 -36 48 -4 0 -19 -8 -32 -17z"/>
<path d="M4224 8826 c-12 -33 6 -55 116 -139 172 -131 186 -140 208 -133 23 8
34 29 26 51 -9 24 -299 235 -323 235 -12 0 -24 -6 -27 -14z"/>
<path d="M11538 8730 c-81 -61 -149 -117 -152 -125 -8 -22 3 -43 26 -51 22 -7
36 2 208 134 102 77 115 91 115 117 0 25 -4 31 -26 33 -19 2 -60 -23 -171
-108z"/>
<path d="M4060 8601 c-5 -11 -7 -26 -4 -34 10 -26 310 -219 335 -215 32 4 47
32 28 54 -24 29 -307 214 -328 214 -11 0 -25 -9 -31 -19z"/>
<path d="M11693 8517 c-84 -56 -155 -110 -159 -120 -7 -23 13 -47 39 -47 25 0
323 195 331 217 9 23 -12 53 -37 52 -12 0 -91 -46 -174 -102z"/>
<path d="M3922 8378 c-7 -7 -12 -22 -12 -34 0 -18 31 -40 166 -119 147 -86
169 -96 190 -86 28 12 31 42 7 63 -25 22 -315 188 -328 188 -6 0 -16 -5 -23
-12z"/>
<path d="M11849 8302 c-81 -48 -154 -93 -163 -101 -23 -20 -20 -50 8 -62 20
-10 43 1 190 86 134 79 166 101 166 119 0 26 -18 46 -39 45 -9 0 -82 -40 -162
-87z"/>
<path d="M3786 8134 c-19 -19 -20 -38 -3 -52 31 -25 326 -172 345 -172 25 0
45 31 36 55 -6 15 -331 185 -353 185 -5 0 -17 -7 -25 -16z"/>
<path d="M11969 8065 c-92 -46 -169 -91 -172 -99 -9 -24 2 -45 28 -52 16 -4
68 18 181 77 146 75 184 100 184 120 0 12 -30 39 -43 38 -7 0 -87 -38 -178
-84z"/>
<path d="M3660 7880 c-7 -13 -7 -26 -1 -37 13 -25 344 -167 369 -159 24 8 34
40 18 59 -13 18 -332 157 -357 157 -10 0 -23 -9 -29 -20z"/>
<path d="M12082 7827 c-89 -40 -167 -78 -171 -86 -13 -21 -1 -51 23 -56 26 -7
355 135 368 159 13 23 -8 56 -35 55 -12 0 -95 -33 -185 -72z"/>
<path d="M3567 7638 c-19 -10 -23 -53 -6 -64 6 -3 88 -35 182 -69 176 -65 199
-68 214 -29 10 27 -29 50 -177 104 -184 67 -193 70 -213 58z"/>
<path d="M12305 7626 c-33 -12 -113 -42 -177 -65 -120 -44 -145 -64 -118 -96
20 -24 57 -17 230 48 146 55 165 65 168 87 3 14 -3 29 -14 37 -22 16 -17 17
-89 -11z"/>
<path d="M3478 7379 c-19 -11 -23 -36 -9 -57 13 -21 363 -122 384 -110 27 14
32 38 11 57 -15 14 -199 74 -354 116 -8 2 -23 0 -32 -6z"/>
<path d="M12283 7337 c-171 -52 -211 -72 -200 -101 14 -36 39 -34 214 19 180
54 203 65 203 96 0 15 -28 41 -42 38 -2 0 -80 -24 -175 -52z"/>
<path d="M3402 7108 c-16 -16 -15 -43 1 -56 7 -6 93 -30 191 -54 186 -44 208
-44 214 -1 2 11 -3 25 -10 30 -12 10 -344 93 -372 93 -7 0 -17 -5 -24 -12z"/>
<path d="M12341 7079 c-90 -22 -170 -44 -178 -51 -8 -6 -13 -20 -11 -31 6 -42
27 -42 214 2 98 24 185 47 192 53 27 23 6 69 -32 67 -12 0 -95 -18 -185 -40z"/>
<path d="M3342 6838 c-16 -16 -15 -43 1 -56 17 -13 365 -74 387 -67 10 3 21
13 24 21 6 16 -9 54 -22 54 -4 0 -81 14 -172 30 -185 34 -201 35 -218 18z"/>
<path d="M12386 6819 c-88 -16 -166 -35 -174 -43 -19 -19 -7 -55 21 -61 12 -2
103 10 201 28 189 34 215 45 190 85 -16 25 -60 24 -238 -9z"/>
<path d="M3302 6568 c-16 -16 -15 -43 2 -57 7 -6 97 -21 199 -32 151 -18 190
-19 202 -9 18 15 19 44 2 58 -11 10 -315 52 -372 52 -12 0 -26 -5 -33 -12z"/>
<path d="M12417 6559 c-150 -18 -177 -27 -177 -59 0 -41 20 -43 217 -21 103
12 193 27 200 33 16 13 17 40 1 56 -15 15 -58 14 -241 -9z"/>
<path d="M3283 6299 c-21 -21 -16 -59 10 -68 12 -5 102 -12 200 -16 181 -7
207 -4 207 31 0 32 -29 41 -152 48 -68 4 -152 9 -188 12 -46 4 -69 2 -77 -7z"/>
<path d="M12450 6299 c-74 -5 -145 -11 -157 -14 -27 -6 -39 -41 -22 -62 12
-13 35 -14 180 -8 206 9 233 13 237 43 2 13 -2 30 -8 38 -14 15 -24 16 -230 3z"/>
<path d="M12296 6032 c-25 -5 -33 -52 -11 -69 25 -18 385 -19 403 -1 16 16 15
43 -1 56 -11 10 -350 22 -391 14z"/>
<path d="M3272 6018 c-7 -7 -12 -19 -12 -28 0 -36 20 -40 208 -40 187 0 222 6
222 38 0 39 -18 42 -215 42 -135 0 -195 -4 -203 -12z"/>
<path d="M3421 5768 c-126 -9 -151 -17 -151 -48 0 -40 20 -43 217 -31 103 6
193 17 200 23 16 13 17 40 1 56 -14 14 -80 14 -267 0z"/>
<path d="M12272 5768 c-16 -16 -15 -43 1 -56 6 -5 96 -16 200 -22 198 -13 217
-10 217 30 0 32 -26 40 -166 50 -182 13 -237 13 -252 -2z"/>
<path d="M3477 5506 c-164 -21 -186 -28 -187 -61 0 -21 24 -35 60 -35 70 0
341 39 355 50 18 15 19 42 3 58 -15 15 -25 14 -231 -12z"/>
<path d="M12252 5518 c-16 -16 -15 -43 2 -57 14 -11 296 -51 362 -51 37 0 58
21 49 49 -8 26 -12 27 -210 51 -201 24 -188 23 -203 8z"/>
<path d="M3533 5246 c-94 -18 -178 -38 -187 -45 -22 -19 -20 -38 7 -55 19 -13
42 -10 199 19 173 31 208 43 208 71 0 16 -28 44 -43 43 -7 0 -89 -15 -184 -33z"/>
<path d="M12218 5269 c-25 -14 -22 -46 5 -62 26 -17 324 -70 363 -65 15 2 32
11 38 20 22 36 -18 53 -189 83 -88 15 -169 29 -180 31 -11 2 -28 -1 -37 -7z"/>
<path d="M3595 4990 c-186 -46 -205 -53 -205 -79 0 -37 25 -45 98 -31 137 25
305 75 316 93 14 21 -3 51 -30 54 -10 1 -91 -16 -179 -37z"/>
<path d="M12162 5018 c-16 -16 -15 -43 1 -57 18 -14 344 -93 370 -89 11 2 25
11 31 21 23 36 -3 50 -185 94 -194 47 -200 48 -217 31z"/>
<path d="M12110 4782 c-28 -9 -37 -36 -21 -60 10 -17 361 -123 382 -117 43 14
28 68 -23 84 -18 5 -87 26 -153 46 -66 20 -131 40 -145 44 -14 4 -32 6 -40 3z"/>
<path d="M3695 4744 c-60 -19 -134 -42 -163 -50 -53 -16 -77 -40 -66 -68 3 -8
14 -18 23 -21 20 -6 367 97 383 113 6 6 8 22 4 36 -9 35 -42 33 -181 -10z"/>
<path d="M3732 4478 c-100 -37 -166 -68 -172 -79 -12 -22 -3 -47 20 -54 17 -5
342 107 368 128 7 6 12 22 10 36 -5 42 -47 36 -226 -31z"/>
<path d="M12007 4533 c-12 -11 -8 -50 6 -60 27 -21 354 -133 370 -127 22 8 32
41 17 59 -14 17 -331 135 -363 135 -13 0 -27 -3 -30 -7z"/>
<path d="M3841 4237 c-90 -40 -169 -80 -175 -90 -14 -21 2 -51 30 -55 26 -4
344 139 358 161 14 21 -3 51 -30 54 -10 1 -93 -30 -183 -70z"/>
<path d="M11912 4298 c-19 -19 -14 -46 11 -62 42 -27 329 -147 344 -144 25 5
40 35 27 55 -11 18 -326 162 -354 163 -9 0 -21 -5 -28 -12z"/>
<path d="M3955 3997 c-87 -45 -164 -90 -169 -99 -14 -22 3 -52 30 -56 23 -3
334 159 349 182 13 20 -4 50 -31 53 -10 1 -91 -35 -179 -80z"/>
<path d="M11802 4068 c-16 -16 -15 -43 1 -55 6 -6 85 -48 174 -94 133 -69 166
-82 180 -73 23 14 28 41 12 60 -15 18 -322 174 -342 174 -7 0 -18 -5 -25 -12z"/>
<path d="M4086 3767 c-87 -52 -162 -101 -167 -109 -5 -9 -6 -23 -3 -32 14 -37
44 -28 197 61 148 86 187 113 187 132 0 14 -29 41 -43 41 -7 0 -83 -42 -171
-93z"/>
<path d="M11676 3844 c-33 -32 -20 -45 166 -154 163 -95 189 -103 204 -58 3
12 0 26 -7 34 -21 20 -321 194 -335 194 -7 0 -20 -7 -28 -16z"/>
<path d="M4224 3540 c-82 -55 -153 -109 -158 -120 -10 -23 7 -50 33 -50 9 0
87 47 174 106 145 96 158 107 155 132 -6 54 -42 42 -204 -68z"/>
<path d="M11537 3633 c-4 -3 -7 -17 -7 -30 0 -19 29 -43 159 -129 88 -59 167
-104 176 -102 23 4 40 31 32 51 -3 9 -74 61 -156 117 -137 91 -185 113 -204
93z"/>
<path d="M4392 3335 c-169 -128 -177 -136 -162 -164 6 -12 20 -21 32 -21 34 0
318 219 318 245 0 24 -18 45 -37 45 -7 0 -75 -47 -151 -105z"/>
<path d="M11392 3428 c-31 -31 -13 -52 136 -165 82 -62 158 -113 170 -113 23
0 45 31 37 52 -7 18 -301 238 -318 238 -7 0 -18 -5 -25 -12z"/>
<path d="M4580 3148 c-174 -150 -180 -156 -180 -177 0 -30 36 -46 63 -28 39
26 272 228 280 243 12 21 -10 54 -36 54 -13 -1 -65 -38 -127 -92z"/>
<path d="M11220 3220 c-6 -11 -7 -26 -3 -34 9 -15 259 -232 283 -245 23 -13
60 5 60 29 0 22 -19 41 -185 184 -103 88 -136 102 -155 66z"/>
<path d="M11056 3044 c-9 -8 -16 -22 -16 -30 0 -14 244 -259 276 -277 21 -12
54 11 54 37 0 17 -38 59 -140 154 -77 73 -144 132 -149 132 -5 0 -17 -7 -25
-16z"/>
<path d="M4723 2921 c-85 -82 -133 -135 -133 -148 0 -27 24 -46 47 -38 10 3
78 63 152 134 122 116 133 130 127 154 -5 21 -12 27 -34 27 -21 -1 -57 -30
-159 -129z"/>
<path d="M5022 2853 c-87 -83 -232 -253 -232 -270 0 -26 24 -46 47 -39 25 8
257 264 261 288 4 22 -14 48 -34 48 -8 0 -27 -12 -42 -27z"/>
<path d="M10872 2868 c-7 -7 -12 -21 -12 -32 1 -22 228 -274 261 -290 25 -12
51 10 47 40 -4 28 -246 294 -268 294 -9 0 -21 -5 -28 -12z"/>
<path d="M5118 2566 c-65 -80 -118 -154 -118 -165 0 -24 34 -45 54 -34 24 14
246 287 246 304 0 8 -5 20 -12 27 -30 30 -53 12 -170 -132z"/>
<path d="M10670 2695 c-10 -12 -10 -21 -2 -38 14 -29 219 -280 238 -290 23
-13 56 11 52 38 -2 13 -55 87 -118 164 -117 144 -140 162 -170 126z"/>
<path d="M5339 2418 c-56 -79 -106 -149 -112 -155 -16 -22 1 -63 26 -63 29 0
40 13 155 171 91 125 104 153 80 177 -28 28 -48 10 -149 -130z"/>
<path d="M10472 2548 c-7 -7 -12 -20 -12 -30 0 -17 199 -300 221 -314 6 -3 21
-3 35 0 43 11 29 46 -87 204 -108 150 -129 168 -157 140z"/>
<path d="M5637 2388 c-57 -76 -187 -290 -187 -308 0 -22 32 -43 53 -34 15 6
217 316 217 333 0 14 -29 41 -45 41 -8 0 -25 -15 -38 -32z"/>
<path d="M10256 2404 c-9 -8 -16 -19 -16 -23 0 -7 114 -192 181 -293 26 -40
47 -51 73 -36 29 16 17 47 -71 186 -119 188 -132 202 -167 166z"/>
<path d="M5868 2273 c-8 -10 -52 -85 -97 -166 -90 -161 -97 -190 -45 -195 31
-3 33 0 123 162 50 91 91 171 91 179 0 36 -47 49 -72 20z"/>
<path d="M10032 2278 c-7 -7 -12 -18 -12 -25 0 -15 156 -299 179 -326 21 -25
65 -19 69 11 3 21 -139 292 -176 335 -18 20 -43 22 -60 5z"/>
<path d="M6020 2006 c-44 -91 -80 -174 -80 -184 0 -11 7 -25 15 -32 31 -26 51
-1 135 172 88 182 91 200 36 206 -26 3 -31 -4 -106 -162z"/>
<path d="M9802 2158 c-6 -6 -12 -15 -12 -20 0 -4 37 -84 81 -177 87 -182 106
-204 140 -162 17 21 17 24 -15 94 -99 216 -131 272 -157 275 -13 2 -30 -3 -37
-10z"/>
<path d="M6326 2048 c-7 -13 -42 -94 -77 -181 -50 -125 -61 -161 -53 -175 14
-21 41 -27 58 -13 7 6 44 85 81 176 73 178 78 215 30 215 -15 0 -30 -9 -39
-22z"/>
<path d="M9564 2046 c-7 -30 123 -354 149 -370 20 -13 50 2 55 27 3 17 -109
305 -134 345 -20 31 -62 30 -70 -2z"/>
<path d="M9338 1979 c-28 -16 -21 -51 40 -229 57 -161 59 -165 86 -165 55 0
54 19 -11 206 -61 178 -80 208 -115 188z"/>
<path d="M6573 1968 c-5 -7 -36 -90 -68 -185 -49 -146 -56 -174 -45 -188 8 -9
24 -15 39 -13 24 3 30 15 83 168 63 183 68 223 27 228 -14 2 -30 -3 -36 -10z"/>
<path d="M6821 1896 c-17 -20 -102 -336 -99 -366 2 -19 10 -26 29 -28 14 -2
31 3 36 10 6 7 32 91 59 187 49 181 50 203 7 209 -11 2 -25 -4 -32 -12z"/>
<path d="M9082 1898 c-7 -7 -12 -17 -12 -24 0 -23 93 -349 103 -362 6 -7 22
-12 36 -10 19 2 27 9 29 29 4 30 -81 344 -98 365 -15 17 -42 18 -58 2z"/>
<path d="M7071 1836 c-12 -14 -81 -323 -81 -362 0 -32 25 -49 54 -36 20 9 27
31 61 196 31 153 36 188 25 201 -16 19 -44 19 -59 1z"/>
<path d="M8830 1835 c-11 -13 -7 -44 20 -171 43 -208 47 -222 71 -229 26 -8
49 11 49 40 0 42 -68 345 -80 360 -16 19 -44 19 -60 0z"/>
<path d="M7326 1795 c-9 -9 -16 -18 -16 -20 0 -2 -11 -81 -25 -176 -14 -95
-23 -180 -20 -190 7 -22 40 -30 60 -15 22 16 74 369 59 394 -15 23 -38 26 -58
7z"/>
<path d="M8579 1794 c-11 -14 -9 -45 13 -200 15 -101 29 -188 33 -194 12 -19
63 -12 70 10 8 25 -43 370 -57 388 -14 17 -43 15 -59 -4z"/>
<path d="M7580 1765 c-13 -15 -39 -246 -40 -347 0 -50 21 -75 54 -62 21 8 23
17 42 217 12 140 13 181 4 192 -16 19 -44 19 -60 0z"/>
<path d="M8320 1761 c-7 -14 -6 -69 5 -188 8 -92 17 -178 20 -189 6 -27 30
-37 56 -24 15 9 19 21 19 63 -1 108 -26 325 -39 341 -18 22 -48 20 -61 -3z"/>
<path d="M7842 1752 c-18 -15 -21 -33 -25 -198 -2 -101 0 -188 5 -198 12 -21
55 -21 67 2 7 13 17 327 12 379 0 7 -10 17 -20 23 -15 7 -24 6 -39 -8z"/>
<path d="M8075 1756 c-17 -12 -18 -28 -16 -196 1 -101 7 -192 12 -202 13 -24
56 -23 68 1 7 11 8 85 3 201 -6 169 -9 184 -28 196 -17 12 -23 12 -39 0z"/>
</g>
</svg>
