<?xml version="1.0" standalone="no"?>
<!DOCTYPE svg PUBLIC "-//W3C//DTD SVG 20010904//EN"
 "http://www.w3.org/TR/2001/REC-SVG-20010904/DTD/svg10.dtd">
<svg version="1.0" xmlns="http://www.w3.org/2000/svg"
 width="108.000000pt" height="72,9.000000pt" viewBox="0 0 1080.000000 729.000000"
 preserveAspectRatio="xMidYMid meet">

<g transform="translate(0.000000,729.000000) scale(0.100000,-0.100000)"
fill="#000000" stroke="none">
<path d="M7575 6759 c-11 -7 -37 -27 -58 -46 -20 -18 -41 -33 -47 -33 -17 0
-166 -155 -215 -224 -11 -16 -25 -33 -30 -40 -6 -6 -51 -60 -100 -121 -49 -60
-95 -117 -102 -125 -7 -8 -39 -51 -72 -95 -33 -44 -64 -84 -68 -90 -5 -5 -51
-64 -103 -130 -52 -66 -134 -166 -182 -223 -49 -56 -88 -109 -88 -117 0 -8 -4
-15 -9 -15 -5 0 -37 -35 -71 -77 -33 -43 -70 -89 -82 -103 -11 -13 -30 -44
-41 -67 -12 -24 -24 -43 -29 -43 -16 0 -285 -388 -326 -470 -7 -14 -26 -45
-42 -70 -27 -41 -58 -94 -111 -190 -10 -19 -26 -51 -35 -70 -21 -49 -50 -98
-67 -118 -17 -19 -69 -110 -93 -162 -9 -19 -22 -46 -30 -60 -7 -14 -28 -53
-45 -88 -18 -34 -36 -65 -40 -68 -5 -3 -9 -13 -9 -23 0 -10 -10 -31 -21 -45
-23 -29 -38 -58 -147 -270 -36 -71 -68 -123 -70 -117 -2 7 3 41 11 75 9 33 21
84 27 111 6 28 17 64 25 81 8 18 22 60 30 95 9 35 27 102 41 149 14 47 30 99
35 115 4 17 20 68 33 115 14 47 46 153 71 235 44 149 81 260 150 450 20 55 40
114 44 130 4 17 13 40 19 52 7 12 12 32 12 44 0 12 15 43 34 69 19 26 49 81
66 121 18 41 40 83 49 94 9 11 27 35 39 53 13 18 38 54 55 78 40 58 44 63 96
156 23 43 62 99 85 125 90 102 105 164 70 284 -19 64 -35 79 -88 79 -34 0 -45
-6 -83 -46 -63 -69 -110 -144 -160 -258 -24 -55 -50 -114 -58 -131 -8 -16 -24
-57 -34 -90 -53 -162 -112 -318 -137 -362 -16 -26 -78 -95 -138 -153 -61 -58
-139 -133 -174 -167 -36 -35 -69 -63 -73 -63 -5 0 -9 -3 -9 -8 0 -4 -50 -59
-111 -122 -61 -63 -123 -131 -138 -150 -14 -19 -50 -60 -79 -90 -80 -83 -191
-219 -379 -465 -20 -27 -53 -72 -72 -100 -19 -27 -48 -66 -65 -86 -27 -31 -91
-114 -198 -256 -16 -19 -28 -42 -28 -49 0 -7 -8 -19 -18 -26 -10 -7 -33 -35
-52 -62 l-35 -49 -3 33 c-2 19 3 49 12 69 9 20 25 68 36 106 11 39 37 124 59
190 22 66 47 147 56 180 10 33 25 83 35 110 10 28 37 109 59 180 22 72 51 163
66 203 14 41 25 84 25 97 0 13 5 27 10 30 6 3 10 14 10 23 0 9 7 31 16 47 9
17 26 64 39 106 13 42 37 108 54 147 17 39 31 77 31 85 0 8 11 26 24 40 13 14
29 41 35 59 6 18 27 62 46 98 19 36 39 75 44 86 5 12 16 24 24 27 9 3 33 37
56 74 22 38 75 108 118 156 134 150 157 178 184 227 30 55 24 77 -27 111 -41
27 -76 24 -105 -8 -42 -48 -114 -145 -151 -208 -20 -33 -45 -69 -56 -81 -11
-11 -39 -58 -63 -104 -61 -114 -127 -181 -483 -483 -28 -23 -79 -69 -115 -103
-82 -75 -180 -154 -192 -154 -12 0 -11 23 2 57 18 45 26 66 41 103 7 19 30 69
52 110 21 41 47 91 56 110 10 19 29 45 42 56 12 12 38 49 57 82 18 33 51 80
72 104 105 116 123 137 159 183 22 27 40 58 40 68 0 10 7 20 15 23 9 4 43 62
76 130 33 68 76 142 95 165 19 22 34 46 34 52 0 6 7 18 16 28 19 21 13 34 -27
54 -26 14 -32 14 -66 -4 -69 -35 -151 -131 -313 -369 -28 -40 -50 -76 -50 -81
0 -5 -7 -15 -16 -22 -9 -7 -26 -32 -38 -55 -40 -79 -129 -219 -151 -240 -12
-11 -24 -25 -26 -30 -9 -20 -129 -74 -165 -74 -75 0 -99 28 -183 215 -10 22
-27 58 -37 80 -24 54 -71 102 -111 116 -63 20 -165 -33 -250 -132 -90 -106
-183 -245 -183 -275 0 -6 -9 -19 -20 -29 -11 -10 -20 -23 -20 -28 0 -6 -7 -18
-15 -27 -17 -18 -131 -247 -150 -300 -7 -19 -24 -60 -38 -90 -13 -30 -31 -71
-38 -90 -7 -19 -23 -58 -36 -87 -13 -28 -28 -64 -35 -80 -11 -26 -12 -20 -18
58 -4 47 -10 91 -13 97 -13 20 -66 25 -92 8 -22 -14 -25 -24 -25 -71 0 -30 -4
-74 -9 -97 -6 -24 -15 -79 -21 -123 -6 -44 -24 -145 -40 -225 -16 -80 -31
-161 -34 -180 -3 -19 -14 -69 -25 -110 -11 -41 -30 -112 -42 -157 -12 -46 -25
-83 -30 -83 -5 0 -9 -10 -9 -22 -1 -23 -75 -85 -164 -136 -23 -13 -43 -27 -46
-31 -3 -5 -30 -25 -60 -45 -63 -41 -141 -95 -261 -180 -46 -33 -132 -92 -190
-131 -153 -104 -171 -117 -204 -146 -16 -14 -61 -50 -100 -79 -144 -108 -219
-168 -255 -205 -14 -14 -30 -25 -35 -25 -5 0 -43 -33 -85 -72 -43 -40 -115
-107 -161 -148 -130 -117 -323 -317 -350 -362 -13 -22 -32 -49 -42 -60 -30
-31 -107 -208 -123 -278 -29 -129 -28 -148 16 -270 42 -118 82 -204 106 -231
8 -8 14 -20 14 -26 0 -42 122 -243 178 -293 10 -8 46 -50 81 -93 35 -42 67
-77 71 -77 4 0 25 -17 47 -37 68 -64 126 -107 173 -130 61 -30 199 -83 216
-83 7 0 33 -7 57 -15 24 -8 74 -18 113 -22 106 -12 372 -8 439 6 87 18 235 76
235 92 0 3 11 11 25 17 38 18 175 133 175 148 0 8 16 24 35 36 19 13 42 37 50
55 20 42 64 93 79 93 15 0 89 98 124 162 12 23 29 49 38 59 8 9 16 28 17 42 1
14 14 35 30 47 31 25 67 89 67 119 0 11 11 28 24 36 23 15 146 246 146 274 0
7 7 19 15 27 8 9 15 27 15 42 0 14 11 37 24 51 25 28 56 100 56 131 0 11 4 20
8 20 11 0 26 37 97 235 31 88 61 168 66 177 5 10 9 27 9 37 0 11 9 44 19 73
11 29 29 87 41 128 12 41 25 86 30 100 24 73 72 234 89 300 11 41 28 109 40
150 11 41 30 109 41 150 11 41 26 95 34 120 23 74 73 240 96 320 12 41 35 116
52 165 37 116 71 224 93 300 9 33 23 74 30 90 7 17 16 46 20 65 4 19 16 52 26
72 11 21 19 45 19 55 0 24 64 117 115 168 22 22 39 44 37 48 -4 13 28 47 44
47 7 0 43 29 79 65 37 36 71 65 77 65 5 0 24 15 42 33 59 57 192 177 229 205
19 15 40 36 45 48 6 11 25 28 43 37 45 21 48 7 14 -60 -14 -28 -25 -56 -25
-61 0 -6 -9 -26 -19 -44 -23 -41 -193 -563 -266 -818 -15 -52 -128 -411 -144
-455 -14 -38 -74 -238 -102 -335 -50 -178 -75 -248 -126 -348 -30 -58 -67
-121 -84 -139 -16 -19 -29 -42 -29 -52 0 -10 -9 -26 -20 -36 -11 -10 -20 -24
-20 -32 0 -7 -7 -16 -15 -19 -8 -4 -15 -11 -15 -18 0 -6 -17 -38 -38 -71 -41
-64 -105 -167 -140 -225 -12 -19 -31 -54 -41 -77 -11 -24 -25 -43 -30 -43 -6
0 -23 -26 -38 -57 -15 -32 -44 -83 -65 -113 -21 -30 -38 -58 -38 -62 0 -4 -15
-31 -34 -60 -18 -29 -46 -78 -61 -108 -15 -30 -31 -57 -35 -60 -4 -3 -22 -34
-39 -70 -18 -36 -37 -72 -42 -80 -5 -8 -31 -58 -58 -110 -26 -52 -62 -120 -78
-150 -40 -73 -173 -392 -173 -413 0 -9 -4 -17 -10 -17 -5 0 -10 -14 -10 -30 0
-17 -4 -38 -10 -48 -5 -9 -23 -60 -39 -114 -29 -95 -29 -97 -13 -143 20 -57
62 -105 91 -105 11 0 42 19 68 42 133 118 267 315 422 618 38 74 83 162 100
195 17 33 31 66 31 73 0 7 34 84 76 170 42 86 87 186 101 222 14 36 28 70 33
75 10 13 67 149 125 300 25 66 54 138 64 160 10 22 30 76 44 120 14 44 38 112
52 150 14 39 33 93 41 120 33 106 45 135 118 287 42 85 76 160 76 166 0 6 14
20 31 32 17 13 35 32 40 44 12 27 29 54 57 89 12 16 22 34 22 40 0 14 112 171
240 337 28 36 67 90 87 120 20 30 49 71 65 90 34 41 79 100 145 189 27 35 57
75 68 87 11 13 34 40 50 60 17 19 39 45 51 57 11 12 54 63 96 112 42 50 98
113 124 141 27 29 61 65 75 80 15 16 37 38 50 50 13 12 54 52 90 90 104 107
197 194 208 194 20 0 12 -29 -63 -228 -41 -108 -80 -219 -86 -247 -6 -27 -15
-59 -20 -70 -18 -47 -50 -154 -60 -200 -6 -27 -19 -72 -29 -100 -33 -89 -51
-152 -51 -177 0 -13 -4 -28 -9 -34 -5 -5 -19 -47 -31 -94 -11 -47 -38 -143
-60 -215 -21 -71 -44 -155 -50 -185 -12 -51 -31 -120 -66 -230 -8 -25 -21 -74
-29 -110 -44 -198 -78 -301 -144 -434 -33 -67 -72 -150 -87 -186 -15 -36 -33
-72 -39 -80 -6 -8 -24 -44 -39 -80 -16 -36 -43 -92 -61 -125 -19 -33 -44 -90
-58 -125 -13 -36 -38 -92 -55 -125 -16 -33 -37 -84 -46 -114 -9 -29 -20 -59
-24 -65 -5 -6 -23 -47 -41 -91 -18 -44 -36 -89 -41 -100 -18 -38 -101 -261
-122 -325 -11 -36 -33 -103 -49 -150 -35 -105 -80 -293 -104 -434 -8 -46 35
-127 79 -150 32 -17 39 -18 62 -6 35 19 132 164 181 270 54 117 168 422 180
481 3 19 12 43 18 54 6 11 19 45 28 75 46 158 57 199 63 240 4 25 13 54 20 65
7 11 25 61 39 110 15 50 36 119 47 155 11 36 26 90 34 120 13 48 38 134 88
300 8 25 21 72 31 105 10 33 22 70 26 83 5 13 9 34 9 47 0 13 5 37 11 52 19
47 26 67 39 103 7 19 16 44 21 55 14 33 49 144 49 156 0 18 102 219 111 219 5
0 9 10 9 23 0 12 11 39 25 59 14 20 25 41 25 46 0 13 46 101 63 120 8 9 18 31
22 49 3 18 14 42 24 55 9 13 26 43 36 68 11 25 31 65 46 90 14 25 39 75 54
110 16 36 34 72 41 80 7 8 19 31 28 50 16 37 66 127 94 170 9 14 30 52 47 85
61 117 108 200 130 230 12 17 31 51 44 77 12 25 34 64 49 85 16 21 49 73 76
117 26 43 52 84 59 91 7 7 26 34 42 60 67 107 219 320 235 330 12 8 13 -28 1
-40 -5 -6 -33 -71 -64 -145 -93 -231 -100 -251 -190 -555 -38 -125 -96 -388
-119 -535 -17 -115 -18 -534 0 -615 34 -153 91 -301 178 -455 66 -116 259
-314 443 -452 57 -43 200 -138 208 -138 4 0 16 -8 27 -19 12 -10 48 -33 81
-51 33 -17 67 -38 76 -46 8 -8 21 -14 27 -14 13 0 122 -80 122 -89 0 -15 -26
-31 -51 -31 -34 0 -102 -24 -137 -48 -57 -40 -308 -172 -326 -172 -7 0 -58
-20 -113 -44 -55 -24 -118 -49 -139 -56 -22 -6 -53 -18 -69 -25 -17 -8 -107
-34 -200 -59 -94 -24 -190 -51 -215 -59 -25 -8 -63 -18 -85 -22 -22 -3 -74
-19 -115 -35 -41 -16 -94 -34 -117 -40 -47 -12 -73 -33 -73 -58 1 -50 70 -72
142 -47 157 56 389 129 483 150 87 20 200 53 240 70 17 7 59 23 95 35 36 12
84 31 107 41 24 11 47 19 51 19 5 0 39 16 75 35 36 19 74 35 84 35 34 0 136
40 268 104 99 49 141 75 172 109 78 85 69 121 -48 205 -76 53 -98 68 -242 159
-45 29 -100 65 -121 80 -21 15 -66 47 -100 70 -138 96 -281 231 -391 368 -60
76 -155 260 -180 350 -9 33 -21 68 -26 78 -6 10 -13 55 -15 100 -3 45 -8 86
-11 90 -11 17 1 336 16 472 13 112 14 113 49 265 16 69 32 143 36 165 8 43 61
226 76 260 5 11 19 56 31 100 12 44 34 107 50 141 16 34 29 65 29 69 0 33 223
483 282 570 15 22 58 85 94 140 37 55 78 111 91 125 14 14 46 54 72 90 25 36
66 85 91 110 25 24 56 58 70 75 14 17 86 87 160 155 164 153 320 309 320 321
0 5 11 14 24 19 27 10 69 61 85 102 8 21 6 29 -10 43 -23 22 -106 30 -134 14z
m-1414 -771 c1 -13 0 -29 -1 -37 -3 -25 -70 -154 -120 -234 -28 -43 -50 -82
-50 -85 -1 -12 -78 -97 -84 -92 -9 10 34 126 95 257 16 34 29 66 29 72 0 5 7
11 15 15 8 3 15 10 15 16 0 6 15 30 33 53 49 64 66 72 68 35z m-2650 -468 c10
-6 26 -25 34 -43 9 -18 22 -43 29 -57 23 -40 76 -157 76 -166 0 -5 23 -31 50
-58 71 -69 137 -90 218 -67 17 5 32 7 32 3 0 -10 -69 -182 -85 -212 -7 -14
-36 -83 -64 -155 -29 -71 -63 -146 -76 -167 -21 -32 -147 -146 -224 -202 -14
-11 -47 -38 -73 -60 -79 -68 -117 -98 -192 -148 -99 -66 -113 -76 -178 -125
-31 -24 -59 -43 -63 -43 -4 0 -36 -21 -71 -47 -36 -27 -82 -59 -103 -73 -21
-14 -64 -43 -96 -65 -32 -22 -65 -45 -75 -50 -10 -6 -25 -17 -34 -24 -31 -26
-37 0 -22 88 8 45 20 89 27 97 7 8 16 38 20 67 5 28 13 53 19 55 5 2 10 21 10
41 0 21 19 87 41 147 23 60 47 124 53 141 7 18 15 36 19 39 4 4 7 13 7 21 0 7
11 36 25 65 14 28 25 57 25 63 0 15 147 345 180 405 14 25 35 68 47 96 12 28
37 74 55 102 18 27 44 69 58 92 14 23 36 47 50 53 14 7 25 19 25 27 1 27 25
60 45 60 10 0 27 10 37 23 20 24 80 71 103 80 24 9 50 8 71 -3z m149 -1125 c0
-2 -6 -19 -14 -37 -8 -18 -26 -73 -41 -123 -15 -49 -40 -128 -55 -175 -39
-122 -86 -274 -109 -355 -11 -38 -33 -110 -50 -160 -16 -49 -52 -171 -80 -270
-29 -99 -58 -200 -66 -225 -8 -25 -23 -81 -34 -125 -11 -44 -24 -93 -31 -110
-11 -30 -105 -342 -140 -464 -10 -35 -25 -80 -34 -100 -8 -20 -33 -94 -56
-164 -23 -71 -53 -154 -67 -185 -14 -32 -29 -66 -33 -77 -4 -11 -33 -72 -64
-136 -31 -64 -56 -123 -56 -132 0 -8 -8 -25 -18 -38 -10 -13 -31 -49 -46 -79
-15 -30 -47 -86 -71 -125 -24 -38 -58 -95 -76 -125 -76 -129 -190 -283 -288
-387 -115 -123 -163 -159 -327 -249 -86 -46 -277 -66 -465 -47 -149 15 -216
30 -248 54 -13 11 -31 19 -40 19 -26 0 -197 87 -219 112 -12 13 -40 44 -63 71
-23 26 -46 47 -53 48 -15 1 -154 161 -193 223 -64 103 -153 278 -189 372 -26
68 -46 205 -37 254 8 48 26 115 33 125 4 6 14 31 23 56 10 25 34 63 55 86 20
22 71 79 112 127 41 48 111 120 155 161 118 107 185 173 185 182 0 5 12 14 27
20 16 7 62 44 103 83 41 39 90 80 109 92 18 12 45 32 60 45 14 14 62 53 105
86 44 34 103 85 131 112 54 52 129 106 275 202 47 30 95 66 108 79 13 13 40
33 61 44 22 10 45 26 53 34 8 8 45 33 82 56 37 22 73 45 79 51 7 5 35 24 62
41 28 18 63 42 78 55 16 13 32 23 35 23 4 0 6 -19 4 -43 -3 -31 2 -49 15 -66
40 -49 106 10 145 130 14 45 29 71 44 79 12 7 35 30 50 51 16 21 33 39 37 39
4 0 30 24 58 54 27 30 63 59 78 66 16 6 33 22 39 36 7 13 17 24 23 24 7 0 19
7 28 15 34 32 79 65 89 65 6 0 21 9 34 20 64 54 111 89 176 130 39 25 124 86
189 137 65 50 136 106 158 123 22 16 65 50 95 74 51 42 70 53 70 41z m52
-1761 c8 -8 -56 -192 -117 -339 -7 -16 -30 -70 -50 -120 -21 -49 -60 -139 -86
-198 -27 -59 -49 -113 -49 -119 0 -6 -9 -25 -19 -42 -11 -17 -27 -53 -37 -81
-29 -86 -343 -709 -387 -769 -18 -24 -54 -76 -82 -116 -49 -70 -80 -98 -93
-85 -4 4 -7 34 -6 68 1 47 8 75 28 116 15 29 43 92 61 140 18 47 47 118 65
156 34 76 52 115 76 173 9 20 20 44 25 52 50 84 79 139 80 151 0 8 11 34 24
59 13 25 33 66 45 92 12 26 30 54 41 63 10 10 23 34 30 54 6 20 17 43 24 51
31 37 85 121 85 131 0 6 14 31 30 56 17 24 30 45 30 47 0 2 26 50 59 107 53
94 81 142 149 249 12 19 30 52 39 73 16 36 24 43 35 31z m1043 -454 c-4 -12
-19 -69 -35 -128 -41 -155 -70 -254 -80 -277 -5 -11 -25 -81 -45 -155 -35
-129 -47 -170 -65 -215 -4 -11 -13 -33 -18 -50 -79 -225 -123 -337 -179 -453
-39 -79 -59 -102 -51 -57 3 16 1 41 -4 57 -8 21 -6 41 6 78 9 27 16 57 16 68
0 10 9 37 20 59 30 62 70 194 70 230 0 17 5 35 10 38 6 3 10 17 10 29 0 13 7
29 14 36 8 6 22 35 32 63 9 29 22 61 29 72 6 11 22 49 34 85 13 36 33 85 45
110 12 25 28 65 35 90 13 42 69 169 112 251 11 20 19 48 19 63 0 17 5 26 16
26 11 0 14 -6 9 -20z"/>
<path d="M10140 4410 c-86 -21 -269 -50 -310 -50 -25 -1 -79 -7 -120 -16 -41
-8 -115 -21 -165 -28 -146 -22 -276 -47 -302 -57 -13 -5 -34 -9 -46 -9 -21 0
-170 -42 -212 -60 -11 -5 -49 -12 -85 -16 -36 -3 -77 -13 -92 -20 -15 -8 -38
-14 -51 -14 -14 0 -38 -7 -53 -15 -16 -8 -42 -15 -59 -15 -16 -1 -48 -8 -70
-16 -22 -9 -62 -22 -90 -29 -27 -7 -90 -28 -140 -46 -79 -30 -97 -41 -158
-102 -57 -57 -68 -73 -61 -90 4 -12 6 -38 6 -59 -2 -40 23 -72 34 -44 3 9 14
16 23 16 18 0 61 39 61 55 0 9 68 75 77 75 3 0 19 6 36 14 18 8 59 22 92 31
33 9 71 21 85 26 91 30 207 60 319 80 30 5 100 25 155 44 165 55 288 82 466
105 52 7 118 18 145 25 28 7 86 18 130 24 44 6 116 15 160 21 44 6 103 15 130
21 28 5 79 12 115 15 94 7 105 11 118 39 38 83 -20 122 -138 95z"/>
</g>
</svg>
