<?xml version="1.0" encoding="utf-8"?>
<!-- Generator: Adobe Illustrator 28.0.0, SVG Export Plug-In . SVG Version: 6.00 Build 0)  -->
<svg version="1.1" id="Слой_1" xmlns="http://www.w3.org/2000/svg" xmlns:xlink="http://www.w3.org/1999/xlink" x="0px" y="0px"
	 viewBox="0 0 612 792" style="enable-background:new 0 0 612 792;" xml:space="preserve">
<style type="text/css">
	.st0{fill:#FDFDFD;}
	.st1{fill:#A3A3A3;}
	.st2{fill:#8D8D8D;}
	.st3{fill:#858585;}
	.st4{fill:#DDDDDD;}
	.st5{fill:#D8D8D8;}
	.st6{fill:#DBDBDB;}
	.st7{fill:#D9D9D9;}
	.st8{fill:#DADADA;}
	.st9{fill:#DFDFDF;}
	.st10{fill:#D5D5D5;}
	.st11{fill:#D6D6D6;}
	.st12{fill:#D4D4D4;}
	.st13{fill:#CFCFCF;}
	.st14{fill:#CECECE;}
	.st15{fill:#D1D1D1;}
	.st16{fill:#D2D2D2;}
	.st17{fill:#CBCBCB;}
	.st18{fill:#CCCCCC;}
	.st19{fill:#C8C8C8;}
	.st20{fill:#898989;}
	.st21{fill:#B2B2B2;}
</style>
<g>
	<g>
		<path class="st0" d="M-104.93,895c-29.66,0-59.31,0-88.98,0c-0.01-331.76,0-663.51-0.1-995.27c0-3.32,0.99-3.73,3.92-3.73
			c330.72,0.07,661.44,0.07,992.16,0c2.94,0,3.92,0.42,3.92,3.74c-0.1,331.75-0.09,663.51-0.09,995.26c-29.67,0-59.33,0-88.98,0
			c-2.09-3.78-1.97-7.98-2.31-12.09c-2.11-25.63-8.09-49.89-24.56-70.55c-10.7-13.43-24.04-23.38-39.57-30.45
			c-3.93-1.79-7.75-3.92-11.9-5.16c-4.56-1.37-6.57-4.19-6.03-8.89c0.41-26.35-5.19-51.58-14.22-76.17
			c-11.71-31.91-28.68-61.17-45.57-90.47c-7.24-12.56-14.47-25.12-20.04-38.55c-2.85-6.86-3.97-13.95-4.21-21.41
			c-0.89-27.49,3.52-54.45,7.59-81.44c4.22-27.99,8.54-55.98,11.22-84.16c1.76-18.55,3.15-37.19,2.15-55.84
			c-1-18.53-4.95-36.62-10.29-54.37c-11.61-38.59-29.27-74.37-51.35-107.93c-21.93-33.33-48.05-63.06-79.72-87.53
			c-29.93-23.12-62.9-39.98-100.46-46.9c-26.42-4.87-52.08-2.96-76.51,8.92c-14.78,7.19-27.27,17.33-36.83,30.75
			c-3.14,4.41-6.48,5.57-11.82,4.73c-21.9-3.42-40.63,3.56-56.82,18.31c-17.89,16.3-28.62,37.07-36.66,59.35
			c-11.6,32.17-17.41,65.59-20.71,99.54c-2.27,23.36-3.04,46.79-4.11,70.23c-1.81,39.73-8.05,78.84-20.51,116.75
			c-8.4,25.56-19.56,49.91-32.9,73.27c-14.87,26.05-32.28,50.55-46.81,76.8c-9.67,17.46-16.79,35.89-19.3,55.87
			c-0.25,2-0.15,3.99-0.22,5.99c-0.05,4.73,0.02,9.45-0.03,14.17c-0.19,14.91,5.85,27.81,13.42,40.05
			C-9.65,718,7.39,734,25.76,748.71c2.97,2.38,6.29,4.34,8.69,7.4c-0.01,4.09-3.52,3.37-5.8,3.96c-14.99,3.87-29.92,7.86-44.43,13.4
			c-21.87,8.35-39.14,22.01-52.15,41.61c-12.07,18.18-21.18,37.69-28.84,57.99C-99.52,880.36-101.52,887.94-104.93,895z"/>
		<path class="st1" d="M633.81,768.01c-0.9,4.84,2.09,6.42,5.99,7.88c25.37,9.5,46.36,24.54,60.09,48.51
			c8.49,14.82,12.69,31.02,14.97,47.77c1.03,7.57,1.4,15.22,2.07,22.83c-273.95,0-547.9,0-821.85,0
			c1.83-10.72,6.26-20.59,10.14-30.62c8.86-22.91,20.3-44.38,36.06-63.42c10.37-12.52,23.69-20.67,38.37-26.94
			c15.93-6.8,32.58-11.33,49.38-15.39c1.57-0.38,4.34,0.53,4.73-2.47c3.84-1.68,8.03-2.04,12.04-2.85
			c17.29-3.48,34.53-7.22,51.74-11.08c1.14-0.26,2.3-0.37,3.47-0.16c1.05,0.21,1.92,0.77,2.71,1.46c0.37,0.3,0.72,0.64,1.05,0.99
			c1.51,1.7,3.15,3.29,4.78,4.88c1.09,1.13,2.21,2.24,3.36,3.32c9.43,9.71,20.08,17.89,31.49,25.12c1.12,0.75,2.2,1.57,3.35,2.28
			c2.38,1.72,5.02,2.98,7.62,4.32c0.63,0.36,1.23,0.74,1.84,1.13c24.27,13.9,50.3,23.13,77.46,29.4c9.64,2.01,19.3,3.87,29.09,5.03
			c1.63,0.55,3.32,0.66,5.03,0.65c34.54,4.28,68.92,3.1,103.17-2.84c1.66-0.18,3.35-0.14,4.94-0.73c4.89-1.01,9.77-2.08,14.62-3.28
			c4.74-0.64,9.21-2.33,13.81-3.51c0.45-0.17,0.92-0.31,1.39-0.44c2.97-0.87,5.94-1.7,8.89-2.67c0.44-0.21,0.88-0.39,1.33-0.57
			c16.3-5.25,31.93-12.01,46.87-20.38c1.22-0.54,2.43-1.13,3.42-2.06c1.32-1.19,2.91-1.96,4.45-2.8c0.98-0.51,1.98-0.99,2.93-1.56
			c4.94-3.38,10.21-6.29,14.68-10.33c1.66-1.59,3.62-2.77,5.45-4.13c4.45-2.98,8.63-6.26,11.81-10.65c1.97-1.87,3.87-3.82,5.96-5.58
			c2.11-1.65,3.57-4.13,6.3-5c1.34-0.31,2.65-0.12,3.95,0.2c23.58,5.75,47.6,9.46,71.08,15.67c10.77,2.85,21.5,5.83,32.07,9.34
			C629.15,770.39,631.43,769.96,633.81,768.01z"/>
		<path class="st2" d="M633.81,768.01c-0.72,4.76-3.08,4.38-7,3.07c-21.35-7.14-43.16-12.56-65.21-17.09
			c-13.1-2.69-26.15-5.56-39.23-8.32c-1.45-0.31-2.93-0.45-4.39-0.67c-1.29,0.53-2.6,0.44-3.91,0.13
			c-26.31-6.28-52.37-13.29-76.05-26.99c-7.98-5.49-15.95-11.01-22.52-18.24c-1.81-2.3-4.04-4.2-6.03-6.34
			c-0.61-0.68-1.14-1.42-1.64-2.18c-2.98-4.35-5.78-8.82-8.58-13.29c-0.72-1.29-1.28-2.65-1.75-4.05
			c-3.06-7.21-5.23-14.7-6.93-22.34c-0.86-5.02-1.85-10.02-1.97-15.14c-0.12-15.29-0.42-30.58,3.1-45.61
			c2.48-6.4,7.9-10.61,12.01-15.78c4.76-6,9.64-11.9,14.39-17.91c4.2-5.3,6.6-11.53,8.54-17.94c4.86-16.1,9.33-32.31,12.99-48.73
			c1.48-6.66,1.91-7.02,8.57-6.91c10.7,0.18,13.82-2.31,16.17-12.77c1.94-8.64,2.55-17.48,3.08-26.24
			c0.64-10.61,3.63-20.29,9.01-29.27c2.26-3.77,2.97-7.38,2.42-11.8c-2.32-18.69-4.69-37.44-10.26-55.42
			c-3.5-11.33-5.55-23.09-10.39-34.05c-4.85-10.98-9.7-21.91-15.92-32.2c-14.07-23.24-33.07-41.1-57.54-53.05
			c-3.29-1.61-6.69-3-9.69-5.08c-0.37,0-0.61-0.53-1.08-0.33c0.47,0.2,0.99,0.3,1.44,0.63c14.04,9.92,24.31,23.11,32.89,37.74
			c2.19,3.73,3.94,7.71,5.8,11.62c0.86,1.81,1.63,3.66,1.76,5.69c0.07,1.01,0,2.19-0.97,2.67c-1.11,0.55-1.77-0.51-2.38-1.26
			c-0.74-0.91-1.21-1.99-1.87-2.95c-20.45-30.06-46.51-52.36-82.89-60.8c-12.48-2.9-24.8-6.51-37.25-9.57
			c-15.09-3.72-30.63-4.35-45.9-6.83c-18.45-3-36.62-7.02-54.17-13.61c-5.61-2.11-10.79-5.18-16.95-7.43
			c3.24,9.9,5.46,19.7,6.97,29.67c3.07,20.21,1.2,40.13-3.27,59.91c-5.47,24.2-15.24,46.82-25.31,69.34
			c-9.18,20.51-19.03,40.74-25.85,62.25c-1.22,3.85-1,7,1.4,10.28c8.15,11.13,11.33,23.84,12.04,37.46
			c0.42,8.12,1.24,16.27,3.15,24.23c2.12,8.84,5.17,11.23,14.29,11.2c8.16-0.03,8.2-0.04,10.17,7.98
			c4.09,16.66,8.36,33.27,13.57,49.63c2.31,7.28,5.95,13.69,10.73,19.57c6.83,8.4,13.52,16.91,20.75,24.97
			c1.35,1.5,2.47,3.14,3.04,5.12c3.72,17.26,3.39,34.77,3.25,52.26c0.06,0.87-0.03,1.73-0.18,2.58c-1.18,5.26-1.43,10.69-2.96,15.89
			c-0.92,2.89-1.9,5.77-2.87,8.65c-2.07,5.17-3.92,10.44-7.13,15.07c-4.33,6.88-9.24,13.28-15.28,18.77
			c-0.81,0.77-1.63,1.54-2.43,2.31c-0.48,0.47-1,0.89-1.55,1.27c-1.53,0.92-2.8,2.18-4.1,3.37c-0.34,0.3-0.71,0.57-1.09,0.82
			c-2.17,1.27-4.19,2.78-6.34,4.07c-2.29,1.15-4.34,2.68-6.54,3.98c-9.56,6.12-20.39,9.43-30.72,13.85
			c-1.6,0.78-3.28,1.27-5.03,1.56c-6.04,1.56-11.92,3.69-17.92,5.37c-1.42,0.42-2.9,0.62-4.32,1.09c-2.66,0.44-5.22,1.69-8.02,1.09
			c-7.26,1.5-14.53,2.97-21.78,4.51c-14.03,2.99-28.07,5.96-42.07,9.1c-1.63,0.37-2.9-0.12-4.32-0.42
			c-26.3-19.59-50.4-41.18-64.44-71.75c-3.68-8.01-6.24-16.42-6.23-25.4c0.9-5.31,0.69-10.63,0.07-15.96
			c0.39-15.92,5.17-30.75,11.42-45.18c9.38-21.66,22.55-41.16,35.22-60.91c23.84-37.17,44.39-75.86,56.52-118.6
			c8.85-31.19,14.08-62.96,15.88-95.32c1.51-27.09,1.82-54.26,4.92-81.25c4.78-41.66,11.8-82.76,30.87-120.74
			c9.09-18.11,20.79-34.17,38.3-45.17c15.01-9.43,31.35-12.81,48.79-9.45c3.48,0.67,4.95-0.25,6.86-2.81
			c24.76-33.14,58.45-46.64,98.99-43.81c41.87,2.92,78.33,20.14,111.7,44.49c41.02,29.94,72.68,68.28,98.33,111.77
			c20.67,35.06,36.63,72.08,45.46,111.98c4.61,20.83,5.13,41.85,4,63.08c-2.33,43.8-9.94,86.92-16.14,130.22
			c-2.83,19.78-5.2,39.61-4.57,59.69c0.3,9.71,2.84,18.68,6.96,27.35c9.88,20.8,22.3,40.18,33.38,60.3
			c16.67,30.27,31.74,61.2,39.27,95.24C632.51,738.43,634.44,753.1,633.81,768.01z"/>
		<path class="st3" d="M-36.85,643.05c1.46,5.32,1.56,10.64-0.07,15.96C-37.41,653.69-37.38,648.37-36.85,643.05z"/>
		<path class="st4" d="M472.05,782.05c-1.4,0.98-2.8,1.96-4.19,2.94c-0.83,0.87-2.81-0.06-2.94,1.9
			c-15.19,8.85-31.26,15.66-47.98,21.01c-3.43-0.42-4.58-4.15-8.25-4.99c-6.63-1.53-13.18-1.32-19.8-1.39
			c-1.34-0.02-2.96-0.09-3.81,0.88c-4.69,5.35-10.9,4.48-16.74,3.83c-11.96-1.33-24.08-1.78-35.83-0.4
			c-17.62,2.07-35.11-0.4-52.64,0.57c-6.33,0.35-12.51,1.03-18.74,2.31c-8.68,1.78-17.54,0.52-26.16,0.7
			c1.35,0.8,3.28,1.56,3.1,3.77c-0.19,2.41-2.18,2.59-4.04,2.78c-27.53-6-53.77-15.4-78.06-29.87c-0.12-0.76,0.2-1.47,0.91-1.46
			c7.48,0.18,14.54-3.02,22.16-2.3c7.1,0.67,14.54,1.35,21.4,0.38c20.23-2.84,40.65,0.77,60.76-2.69c3.56-0.61,6.95-0.48,10.17,1.34
			c1.34,0.75,2.84,0.91,4.34,1.02c0.33,0.02,0.67,0.06,1,0.04c26.45-1.06,52.83,1.77,79.65,1.7c-10.31-0.57-20.31,0.66-30.97-0.88
			c2.32-3.1,4.91-2.74,7.26-2.75c11.32-0.09,22.65-0.03,33.97-0.04c5.82-0.01,11.6,0.16,17.34-1.47c4.4-1.25,8.91,0.47,13.41,0.53
			c23.31,0.28,46.58-1.46,69.89-1.29C469.89,778.23,473.12,777.46,472.05,782.05z"/>
		<path class="st5" d="M438.14,716.9c23.96,13.41,50.04,20.82,76.53,27.07c1.12,0.26,2.2,0.68,3.31,1.03
			c-1.3,2.05-2.97,3.74-4.95,5.13c-18.85-2.51-37.72-2.55-56.6-0.43c-4.29,0.48-8.57,1.03-12.85,1.67
			c-12.17-0.17-24.34,0.56-36.5-0.38c-3.05-1.94-6.37-2.49-9.98-2.46c-19.14,0.14-38.41-1.3-57.36,1.34
			c-17.31,2.41-34.63,0.14-51.75,2.01c-14.98,1.63-29.93,2.32-44.83,1.47c-18.49-1.06-36.96-0.93-55.41-0.62
			c-18.47,0.31-36.93,0.99-55.4,0.87c-1.34-0.01-2.7,0.03-3.96,0.42c-5.59,1.73-11.07,1.88-16.42-0.87c-0.99-1-1.99-2-2.98-3
			c-0.55-2.78-2.19-4.5-4.96-5.13l0,0.01c-0.51-2.17,1.26-2.22,2.54-2.75c1.11-0.46,2.68,0.18,3.33-1.37c1.13-1.13,2.62-0.88,4-1
			c1.65-0.22,3.29,0.76,5.02-0.28c1.35-0.82,2.8-0.34,3.71,1.12c1.71,1.13,3.4-0.24,5.1-0.08c7.36,0.27,14.71-0.53,22.05-0.01
			c0.95,1.97-0.6,1.78-1.65,1.8c-3.37,0.08-6.75,0.03-9.01,0.03c4.2-0.21,9.64,1.03,14.52-1.97c-6.47-0.17-12.85-0.05-19.24,0.02
			c-4.81,0.05-4.81,0.18-2.98-4.03c0.33-0.76,0.29-1.62,0.69-2.35c1.56-0.43,3.13-0.86,4.69-1.3c11.76,0.2,23.4-2.1,35.21-1.47
			c7.8,0.42,15.67,0.03,23.41,1.29c4.72,0.77,9.21,0.39,13.79-0.89c14.57-4.06,29.44-2.08,44.2-1.83c3.3,0.06,6.62,0.55,9.96,0.55
			c26.65-0.01,53.3-0.2,79.95,0.05c29.14,0.27,58.25-1.77,87.39-1.08c4.54,0.11,8.66-1.24,12.28-4.09c-2.01-1.2-6.29,0.73-5.17-4.13
			c0.46-0.59,1.53-0.99,0.12-1.93C437.27,718.89,435.31,717.45,438.14,716.9z"/>
		<path class="st6" d="M472.05,782.05c-0.9-1.64-1.26-2.7-4.17-2.46c-8.92,0.76-17.97-0.05-26.93,0.5
			c-15.94,0.98-31.89,0.37-47.81,1.03c-21.95,0.91-43.9,0.77-65.87,1.89c11.94,0,23.87,0,36.22,0c-1.29,2.52-2.96,1.95-4.34,1.96
			c-28.26,0.11-56.5-1.68-84.76-0.98c-0.66,0.02-1.59,0.22-1.95-0.13c-4.41-4.24-9.55-2.52-14.52-1.85
			c-15.07,2.02-30.31-0.36-45.29,1.23c-14.41,1.53-28.71-0.02-43.04,0.75c-0.33,0.02-0.76-0.12-0.99,0.03
			c-3.9,2.66-8.24,2.51-12.64,2.05c-0.36-0.28-0.72-0.56-1.08-0.84c-0.92-5.27-2.3-6.02-7.85-4.28c-1-0.66-2-1.33-3-1.99
			c-1.71-2.79-4.52-4.33-7.03-6.22c-0.88-0.66-2.36-1.23-1.8-2.59c0.52-1.24,1.94-1.01,3.13-0.81c0.53,0.14,1.04,0.31,1.55,0.49
			c19.18-0.43,38.35-0.2,57.53-0.22c14.45,1.55,29.01,1.5,43.4,0.48c20.94-1.49,41.8-0.38,62.69-0.17c1.34,0.01,2.81,0.28,3.85-0.64
			c3.78-3.33,8.34-2.9,12.81-2.88c15.65,0.04,31.3-0.12,46.95,0.07c17.91,0.18,35.82,0.15,53.73,0c16.27-1.6,32.58-1.05,48.89-1.07
			c6.33-0.01,12.57-1.5,18.93-1.01c2.28,0.18,4.73-0.27,6.54,1.71c-1.73,1.36-3.46,2.72-5.19,4.07c-4.97,1.04-8.01,5.53-12.65,7.08
			c-0.06,0.03-0.1-0.27-0.24-0.01c-0.07,1.64-2.03,2.1-2.2,3.66C473.98,781.3,473.02,781.68,472.05,782.05z"/>
		<path class="st7" d="M138.03,770.01c-0.63,0.07-1.53-0.09-1.85,0.26c-0.79,0.89,0.43,1.01,0.8,1.16c2.84,1.13,4.3,3.94,6.8,5.46
			c1.01,0.61,0.48,1.36,0.25,2.09c-11.67-7.39-22.74-15.53-32.08-25.82c1.04-1.1,2.75-1.22,3.59-0.68c3.93,2.5,7.6,1.42,11.42-0.09
			c1.03-0.41,2.28-0.35,3.43-0.36c28.59-0.35,57.19-0.66,85.78-1.02c18.28-0.23,36.62,2.64,54.79,0.77
			c19.75-2.04,39.7,0.32,59.14-2.23c23.7-3.1,47.28-1.75,70.9-2.57c2.68-0.09,4.87,0.26,5.98,3.04c12.33,0.85,24.66,0.85,36.99,0
			c7.82-1.16,15.59-2.92,23.53-2.96c14.07-0.08,28.15-0.24,42.22,0.55c1.88,0.11,2.54,1.25,3.29,2.53c-2.06,1.55-3.3,4.06-5.88,4.98
			c-4.02,2.61-8.37,2.76-12.96,2.06c-5.79-0.89-11.6-1.22-17.27,0.84c-0.94,0.34-1.96,0.39-2.95,0.46c-0.66,0.05-1.33,0.07-2,0.07
			c-28.3,0.09-56.59,0.39-84.88,0.81c-26.23,0.39-52.44,2.12-78.69,1.21c-1.16-0.04-2.51-0.27-3.44,0.37
			c-5.26,3.61-11.2,2.59-16.95,2.6c-48.13,0.05-96.26,0.02-144.38,0.04c-2.93,0-5.95-0.4-8.82,1.1
			C134.93,767.21,138.41,767.45,138.03,770.01z"/>
		<path class="st8" d="M138.03,770.01c-2.13-0.39-2.67-4.09-5.92-2.55c-1.01,0.48-1.1-1.29-0.58-2.18c1.63-2.76,4.14-3.34,7.23-3.32
			c20.31,0.1,40.62,0.05,60.94,0.05c32.3,0,64.6,0.02,96.9-0.05c2.23,0,5.04,1.21,6.29-2.35c0.46-1.31,2.41-0.57,3.67-0.57
			c13.82-0.05,27.64,0.03,41.46-0.07c3.87-0.03,7.73,0.62,11.56-1.64c2.52-1.49,5.84,0.61,8.75,0.56
			c13.11-0.24,26.23,0.88,39.35-0.67c6.73-0.8,13.63-0.2,20.46-0.2c11.32-0.01,22.65,0.18,33.96-0.08c6-0.14,11.95,0.8,18.06-1.58
			c3.86-1.5,8.85-0.2,13.33,0.02c3.87,0.19,7.91,2.63,11.34-1.48c0.82-0.98,1.38,1.04,2.31,1.22c-2.59,5.18-7.21,8.15-11.93,11.01
			c-20.81,0.41-41.61,1.17-62.44,1.05c-3.87-0.02-7.82,0.98-11.79,0.84c-1.45-1.05-3.13-1-4.79-1c-14.8-0.01-29.61-0.01-44.41,0
			c-1.67,0-3.34-0.06-4.79,1c-17.15,0-34.31-0.01-51.46,0.01c-2.41,0-4.92-0.56-6.31,2.56c-0.56,1.26-2.49,1.62-4.05,1.39
			c-13.91-2.08-27.9-0.42-41.84-0.95c-3.64-0.14-7.28,0.29-10.88-0.88c-3.44-1.12-6.41,1.8-9.61,1.75
			c-15.28-0.24-30.59,1.23-45.83-0.88c-1.73-1.43-3.8-1.01-5.75-0.98c-17.28,0.22-34.57-0.56-51.84,0.43
			C138.89,770.48,138.48,770.22,138.03,770.01z"/>
		<path class="st9" d="M234.03,815.95c0.96-1.25,3.94-1.24,3.2-3.19c-0.93-2.43-3.66-3.1-6.34-3.14c4.43-1.57,8.85-1.88,13.31-1.61
			c8.99,0.55,17.7-1.04,26.52-2.55c6.31-1.08,12.93-0.56,19.4-0.41c9.94,0.23,19.87-0.05,29.84,0.63
			c7.18,0.49,14.51-1.87,21.98-1.81c11.62,0.09,23.21,0.58,34.81,1.15c2.67,0.13,5.13-0.2,6.11-3.1c0.85-2.53,2.85-1.86,4.55-1.88
			c8.52-0.12,17.03-0.25,25.45,1.53c1.28,0.27,1.69,0.6,1.46,1.87c-0.39,2.19,1.42,3.17,2.62,4.47c-0.29,0.11-0.59,0.15-0.89,0.13
			c-1.29,0.97-2.62,0.18-3.74-0.21c-3.17-1.1-4.57,0.37-5.33,3.14c-0.3,0.07-0.61,0.1-0.91,0.08c-7.06-0.41-13.89,1.11-20.76,2.36
			c-1.18-1.2-1.05-2.38,0.36-3.74c-4.13,3.78-8.65,3.54-13.37,1.5c-1.4-0.6-2.93-0.73-4.42-0.4c-14.77,3.26-29.77,2.58-44.73,2.67
			c-2.92,0.02-5.81-0.82-8.73-0.35c10.76,0.54,21.54,0.55,32.31,0.45c7.45-0.07,14.86,0.38,22.33-1.5c4.64-1.17,9.79,0.23,14.63,1.2
			c0.87,0.18,1.59,0.29,2.33-0.24c2.34-0.38,5.02-1.8,5.98,1.97c-4.9,1.31-9.78,2.71-14.87,3.08c-1.21,0.55-2.57,0.77-1.82-1.13
			c0.47-1.19,2.23-1.06,4.51-1.44c-0.35,0.07-1.34-0.81-0.99-0.25c0.1,0.16-0.02,0.27-0.34,0.35c-2.19,0.51-4.91,0.18-5.45,3.37
			c-12.3,2.94-24.88,3.93-37.41,4.9c-16.39,1.27-32.84,1.47-49.26,0.07c-6.11-0.52-12.19-1.32-18.28-1.99
			c2.37-3.08,6.24-0.6,8.39-2.44c-3.84,0.36-8.07,2.07-12.57,1.56C253.72,820.53,243.82,818.6,234.03,815.95z"/>
		<path class="st4" d="M385.99,813.01c6.58-1.8,12.96-5.58,20.07-1.95c-4.53,1.92-9.22,3.21-14.08,3.92
			C390.39,813.06,388.22,812.92,385.99,813.01z"/>
		<path class="st8" d="M474.94,780.92c-1.55-2.46,1.37-2.6,2.03-3.91c3.3-2.99,7.16-5.17,10.89-7.56c1.24-0.79,2.02-1.22,2.17,0.74
			C485.65,774.69,480.03,777.43,474.94,780.92z"/>
		<path class="st4" d="M147.04,780.97c2.17-4.35,4.77-2.56,7.58-0.67c2.46,1.65,2.49,3.17,0.27,4.95
			C151.99,784.34,149.49,782.7,147.04,780.97z"/>
		<path class="st4" d="M406.97,810.97c-0.75-4.82,0.56-5.99,4.98-4.45c1.37,0.48,2.73,1,4.09,1.51
			C413.02,809.01,409.99,809.99,406.97,810.97z"/>
		<path class="st4" d="M263.87,821.07c5.08-0.49,10-2.55,15.27-1.53c-3.58,1.39-7.58,0.8-11.09,2.41
			C266.59,821.94,265.07,822.27,263.87,821.07z"/>
		<path class="st4" d="M373,818.96c0.02-6.78,5.13-2.78,7.99-3.51c-1.69,0.66-3.37,1.31-5.06,1.97c0.07,0.13,0.11,0.34,0.21,0.38
			c0.3,0.12,0.63,0.17,0.96,0.25C375.93,819.27,374.43,818.95,373,818.96z"/>
		<path class="st7" d="M109.89,740.91c0.4,1.96-0.88,2.51-2.33,2.29c-1.77-0.27-2.82,0.34-3.55,1.83c-0.69-0.69-1.39-1.37-2.08-2.06
			C104.41,741.63,107.1,741.08,109.89,740.91z"/>
		<path class="st7" d="M104.01,745.03c4.66-0.49,5.56,0.44,4.96,5.13C107.03,748.73,105.28,747.11,104.01,745.03z"/>
		<path class="st8" d="M464.92,786.89c-0.12-0.72-1.67-0.86-0.99-1.7c1.11-1.36,2.6-0.24,3.93-0.19
			C467.2,786.14,466,786.42,464.92,786.89z"/>
		<path class="st8" d="M373.95,222.75c30.38,11.64,53.5,31.82,70.16,59.62c9.03,15.08,16.41,30.99,20.76,47.95
			c1.72,6.72,4.4,13.06,5.98,19.78c4.46,18.95,7.45,38.15,9.97,57.43c0.25,1.95-0.18,3.65-1.29,5.18
			c-8.72,11.99-10.65,25.9-11.58,40.16c-0.4,6.12-1.1,12.27-2.29,18.28c-2.29,11.58-6.11,14.73-17.86,13.68
			c-5.09-0.45-5.99,1.62-6.85,5.63c-3.61,16.92-8.6,33.47-13.24,50.13c-3.84,13.77-13.61,23.44-22.01,34.09
			c-4.12,5.22-8.52,10.22-12.79,15.32c-6.16,9.37-14.3,17.03-21.97,25.07c-5.37,5.64-10.95,11.12-17.31,15.71
			c-5.92,5.46-12.15,10.53-19.04,14.73c-1.59,0.73-2.88,1.9-4.25,2.95c-0.72,0.47-1.49,0.86-2.25,1.24
			c-1.36,0.65-2.71,1.3-4.03,2.04c-0.8,0.44-1.6,0.87-2.4,1.3c-3.72,1.87-7.58,3.35-11.69,4.13c-1.74,0.14-3.49,0.15-5.16,0.74
			c-8.36,1.18-15.74-1.57-22.76-5.73c-2.72-1.61-5.5-3.12-8.06-4.99c-9.66-6.48-18.42-14.11-27.35-21.51
			c-9.09-8.45-17.7-17.38-25.98-26.62c-2.49-2.78-5.72-5.1-6.63-9.07c-7.91-9.43-15.62-19.03-23.77-28.25
			c-9.58-10.85-12.31-24.52-16.12-37.71c-3.42-11.81-6.11-23.82-9.21-35.72c-0.43-1.67-0.16-3.67-3.46-3.56
			c-16.26,0.57-19.46-2.36-21.45-18.76c-0.98-8.07-2.29-16.15-2.62-24.25c-0.48-11.85-5.31-21.88-11.82-31.28
			c-2.12-3.06-2.38-5.68-1.26-9.2c6.92-21.8,16.82-42.34,26.19-63.1c10.75-23.83,20.96-47.86,26.38-73.58
			c6.25-29.61,4.89-58.79-6-88.19c3.53,1.64,6.42,2.93,9.26,4.3c23.06,11.13,47.73,16.47,72.91,19.27
			c32.04,3.56,63.23,10.82,93.51,21.47c25.45,8.96,44.37,26.99,60.29,48.31c2.77,3.71,5.51,7.44,7.97,11.35
			c-7.24-23.54-22.06-41.7-40.78-57.1C373.57,223.62,373.54,223.19,373.95,222.75z"/>
		<path class="st10" d="M438.14,716.9c-2.28,1.73,2.22,1.62,0.84,3.11c-2.24,1.5-4.8,1.37-7.26,1.18
			c-9.63-0.74-19.22-1.5-28.81,0.78c-3.22,0.76-6.6-0.47-9.94-0.47c-10.16,0-20.25,1.59-30.43,1.08c-4.15-0.21-8.33-0.01-12.45-0.77
			c-6.29-1.16-12.09,1.81-18.23,2.23c-7.17,0.49-14.27,0.49-21.43,0.01c-11.62-0.76-23.28-0.8-34.9-1.48
			c-0.5-0.03-1.05-0.09-1.49,0.1c-8.54,3.72-17.19,1.75-25.98,1.07c-11.8-0.92-23.6,0.13-35.18,3.13
			c-5.69,1.48-11.62,0.67-17.43,0.62c-8.29-0.08-16.59,0.7-24.82-1.61c-6.75-1.89-6.86-1.48-2.65-6.89c1.81-1.6,3.81-2.9,6.05-3.82
			c0.58,0.51,0.49,1.07,0.13,1.64c-0.27,0.5-0.79,1.1-0.04,1.52c0.74,0.42,1.49,0.07,2.12-0.45c0.38-0.23,0.76-0.47,1.23-0.46
			c-0.77-0.15-1.16,0.51-1.74,0.79c-1,0.38-1.75,0.33-1.8-1c1.5-3.04,5.09-3.76,7.04-6.3l-0.04,0.03c1.99-1.03,3.46-2.68,5.02-4.22
			c0.3-0.25,0.61-0.51,0.91-0.76c0.85-0.55,1.65-0.63,2.34,0.26c0.14,0.4,0.13,0.81,0,1.19c1.09,0.95,1.61-0.82,2.56-0.56
			c3.32-0.33,6.62-1.15,9.94-0.88c2.62,0.22,4.48,1.39,1.86,4.36c7.16,0.34,14.39,0.11,21.62,0.16c-5.1,0.11-10.2-0.02-15.3,0
			c-1.46,0.01-3.54,0.28-3.63-1.65c-0.11-2.3,2.25-2.05,3.76-2.18c3.82-0.33,7.66-0.1,11.49-0.14c2.16-0.02,4.4,0.32,6.47-0.26
			c4.18-1.17,8.06-1.94,11.3,2.16c1.04,1.31,3.08,1.07,4.75,1.07c15.28,0.05,30.56,0.03,45.78,0.07c-5.88-0.55-12.01,0.95-18.3-1.38
			c2.26-3.07,4.9-2.54,7.28-2.63c16.47-0.62,32.96-0.57,49.44-0.52c2,0.01,3.99-0.03,5.96-0.48c4.62-0.01,9.24-0.05,13.21,0.01
			c-0.2,0.09-1.03-0.07-1.88-0.06c-3.99,0.04-7.98-0.06-11.98,0.06c-13.18,0.79-26.34,0.63-40.27,0.05
			c1.96-3.23,4.19-3.15,6.24-3.15c11.65-0.05,23.3-0.24,34.95,0.08c4.3,0.06,8.6-0.06,12.9,0.03c3.18,0.1,6.37-0.14,9.53,0.26
			c0.54,0.06,1.08,0.18,1.6,0.32c4.77,1.07,9.62,0.28,14.42,0.5c1.83,0.09,3.67-0.1,5.48,0.28c1.49,0.31,3.36,0.79,3.42,2.41
			c0.07,1.93-2.03,1.79-3.41,2.09c-9.23,1.95-18.57,1.11-27.86,0.85c-4.48-0.13-8.98-0.02-12.77-0.27
			c9.58-0.16,19.82,0.89,30.09,0.53c5.59-0.19,11.02-0.24,16.26-3.18c3.44-1.93,7.86-0.56,11.84-0.73c3.56-0.15,6.93,0.36,9.96-3.07
			c1.96-2.22,5.23-0.15,7.32,1.91c0.69,0.68,0.79,1.83,1.29,2.68c0.48,0.82,0.94,1.87,2.2,1.59c0.47-0.11,0.9-0.56,0.95-1.05
			c0.13-1.15-0.59-1.84-1.54-2.31c-1.77-0.88-3.85-1.46-3.65-4.1c0.75-1.39,1.68-2.27,3.32-1.22
			C422.68,705.74,430.31,711.45,438.14,716.9z"/>
		<path class="st11" d="M167.98,718.99c1.34,2.17,1.34,2.17-2.22,4.59c5.61-0.5,10.44,3.13,16.14,2.49c2.79-0.32,5.68-0.3,8.47-0.01
			c13.02,1.34,25.66-1.78,38.43-3.25c9.79-1.13,19.48-1.43,29.14,0.71c3.17,0.71,6.35,1.02,9.25-0.47
			c6.33-3.24,12.84-2.18,19.39-1.33c0.82,0.11,1.65,0.32,2.46,0.28c12.3-0.7,24.54,1.56,36.8,0.9c5.32-0.29,10.89,0.13,15.96-2.52
			c1.21-0.63,2.96-0.5,4.41-0.32c14.4,1.74,28.78,0.19,43.17,0.22c11.7,0.02,23.26-2.12,34.95-1.26c4.88,0.36,9.76,0.67,14.63,1.01
			c-0.17,1.61-1.94,3.85,2.07,3.34c1.64-0.21,3.53,1.51,5.23,2.31c0.01,2.18-5.26-1.73-2.71,2.81c0.05,0.1-0.71,0.94-1,0.89
			c-4.75-0.89-8.84,2.14-13.72,1.86c-11.61-0.66-23.3-0.64-34.93-0.14c-43.22,1.88-86.45,0.65-129.68,0.79
			c-11.75,0.04-23.53-1.09-35.32-0.87c-5.79,0.11-11.54-0.36-17.21,1.82c-8.34,3.2-16.87,0.64-25.37,0.43
			c-14.51-0.36-29.19-1.74-43.55,1.58c-2.94,0.68-3.79-2.1-6.01-1.96C147.22,728.33,157.94,724.42,167.98,718.99z"/>
		<path class="st12" d="M334,705.01c-1.8,1.12-3.81,1.01-5.81,1.01c-7.5-0.02-14.99,0.11-22.49-0.03
			c-10.91-0.21-21.7,1.99-32.64,1.25c7.32,1.8,15.01-0.68,22.55,2.03c-1.68,2.46-3.69,1.71-5.39,1.71
			c-15.82,0.06-31.65-0.01-47.47,0.07c-2.85,0.01-5.32-0.15-6.44-3.33c-0.43-1.23-1.58-2.11-2.74-1.57
			c-8.14,3.75-16.72,1.02-25.04,1.88c-0.59,0.06-1.33-0.15-1.81,1.51c7.11,0,14.07,0,21.04,0c0.01,0.49,0.01,0.99,0.02,1.48
			c-3.61,0-7.23,0.1-10.84-0.02c-5-0.17-9.93,0.27-14.87,0.96c-1.14,0.16-3.18,0.76-3.4-0.96c-0.27-2.12,1.83-1.82,3.26-1.97
			c0.77-0.09,1.53-0.2,2.29-0.81c-4.69-1.99-9.5,0.81-14.2-0.19c-0.9,0.23-1.27-0.06-1-1l0,0c0.85-1.05-0.88-2.06-0.06-3.11
			c5.58-5.86,10.93-11.91,15.22-18.8c2.74,0.93,0.9,3.33,1.58,4.92c-0.33,3.14-2.85,4.69-5.14,6.88c9.82-3.24,19.72-2.36,29.44-3.16
			c3.19-0.26,6.22-0.86,9.27-1.7c2.1-0.58,4.29-0.51,6.41,0.22c0.53,0.22,1,0.51,1.45,0.85c3.95,2.74,8.48,1.64,12.56,1.22
			c12.58-1.32,25.15-2.03,37.79-1.88c1.33,0.02,2.67-0.09,3.99,0.02c13.18,1.06,26.14-1.52,39.19-2.41
			c17.62-1.2,35.24-0.38,52.86-0.47c1.65-0.01,4.32-0.17,4.18,2.28c-0.13,2.28-2.62,2.11-4.44,2.11
			c-13.81,0.04-27.61,0.01-38.41,0.02c15.94-0.93,35.1,2.2,53.84-2.93c0.48,0.61,0.95,1.22,1.43,1.83
			c-0.24,1.06-0.94,1.87-1.45,2.78c-0.85,2.36,0.11,3.45,2.48,3.58c0.67,0.04,1.28,0.22,1.74,0.74c0.11,1.46,0.49,2.5,2.34,2.53
			c2.3,0.03,3.37,1.83,4.37,3.6c0.45,0.79,1.56,1.43,0.44,2.49c-2.28-2.93-2.58,3.95-4.79,0.98c-0.97-1.3-2.57-2.26-2.61-4.1
			c-0.08-3.48-3.26-2.67-5.05-3.48c-2.82-1.29-0.63,1.62-1.53,2.37c-1.4,1.18-2.77,1.65-4.51,1.62c-3.66-0.05-7.32-0.08-10.98,0
			c-3.2,0.07-6.58-0.88-9.15,2.4c-0.64,0.81-2.82,0.56-4.29,0.56c-12.14,0.04-24.28,0.06-36.42-0.01c-2.63-0.01-5.21,0.19-8.11,1.15
			c0.83-3.27,3-2.97,5.05-3.15c7.49-0.64,14.85,1.21,22.33,1.11c7.11-0.1,14.18,0.05,20.86-2.76c-1.45-1.85-3.73-1.14-5.79-1.33
			c-5.71-0.53-11.54,1.19-17.04-1.23c10.01-0.29,19.69-0.23,29.37-0.27c-9.83,0.01-19.66-0.03-29.37,0.27
			c-3.44,0.24-6.78,0.24-10.11,0.24c-4.33-2.89-8.67-2.49-13,0c-13.25,0-26.51,0-39.76,0c0,0.33-0.01,0.67-0.01,1
			c12.92,0,25.85,0,38.77,0c0.33,0.22,0.44,0.44,0.33,0.67C334.22,704.9,334.11,705.01,334,705.01z"/>
		<path class="st13" d="M211.12,670.06c0.96-2.68,1.92-5.36,2.88-8.04c3.25-1.01,6.41-0.97,9.79-0.15
			c5.7,1.39,11.65,1.08,17.38,0.51c15.45-1.53,30.93,0,46.34-1.01c11.51-0.75,23.44,0.37,34.39-4.15c5.3-2.19,10.46-2.98,15.97-2.59
			c2.11,0.15,4.8,0.16,4.63,3.24c-0.16,2.79-2.5,3.14-4.82,3.13c-1.5-0.01-2.99,0.01-4.48,0.21c16.86-2.86,33.84-1.4,50.77-1.65
			c3.82-0.06,5.44-1.73,5.59-5.3c0.47-1.07,0.77-2.33,2.35-2.21c1.79,7.5,3.99,14.88,6.96,22c-1.49,2.68-4.14,2.37-6.59,2.55
			c-22.07,1.55-44.18,1.08-66.27,0.95c-11.15-0.06-22.25,0.77-33.38,0.85c-2.13,0.02-4.35,0.32-6.26-1.04
			c-0.64-2.68,1.54-2.39,2.94-2.57c2.94-0.37,5.92-0.04,8.86-0.35c-4.28,0.66-9.03-1.7-12.81,2.17c-2.93,1.33-5.94,1.23-8.65-0.25
			c-3.94-2.15-7.91-1.9-12.09-1.19c-15,2.56-30.1,1.36-45.15,0.82C215.86,675.86,211.61,675.25,211.12,670.06z"/>
		<path class="st14" d="M390.98,654.01c-0.56,7-0.56,7-8.14,7c-11.32,0-22.64,0.06-33.96-0.03c-5.82-0.05-11.51,1.72-17.35,1.02
			c-1.56-0.19-3.35,0.6-5.37-2c4.35,0,7.97,0.01,11.6-0.01c1.67-0.01,3.77,0.09,3.89-2.1c0.16-2.73-2.28-1.56-3.7-1.89
			c-6.62-1.55-12.54,1.4-18.31,3.57c-4.34,1.63-8.72,1.88-13.03,2.29c-17.46,1.69-35,1.1-52.51,1.14
			c-7.46,0.02-14.85,1.6-22.35,1.04c-3.77-0.28-7.76,0.7-11.13-1.72c-2.23-1.6-4.57,2.72-6.61-0.31c0.99-5.34,1.98-10.68,2.96-16.02
			c2.31,1.45,4.48,2.66,7.18,0.38c1.2-1.02,3.17-0.75,4.83-0.57c11.22,1.26,22.42,1.03,33.66,0.17c3.75-0.29,7.57,0.32,11.37,0.04
			c7.5,3.96,14.26,9.45,23.1,10.62c2.65,0.35,5.26,0.21,7.88,0.38c1.5-1.17,3.51,0.23,5-0.99c4-1.34,8-2.67,12-4.01
			c0.87,0.07,1.77,0.22,2-1c1.02-1.3,2.42-1.84,4-2c2.19,2.71,1.08-1.16,2-1c0.89-1.6,1.98-2.91,4-2.99c1.87,2,3.79,1.43,5.79,0.19
			c4.84-2.98,9.61-0.01,14.41,0.04c4.54,0.04,8.52-2.27,13.69,0.47c4.76,2.52,11.29,2.34,16.57-0.88c2.52-1.54,3.6-0.64,3.5,1.63
			C387.84,649.58,389.14,651.84,390.98,654.01z"/>
		<path class="st15" d="M286,676.01c4.76,2.13,9.88,1.38,14.61,0.76c6.48-0.85,12.9-0.68,19.34-0.72
			c15.61-0.11,31.23,0.08,46.84-0.08c9.59-0.1,19.19-0.6,28.78-1c1.11-0.05,2.21-0.6,3.31-0.92c0.4,1.27,0.8,2.53,1.2,3.8
			c0.32,4.45-2.08,6.35-6.2,6.66c-0.5,0.04-1,0.07-1.5,0.07c-32.26-0.33-64.44,3.43-96.72,2.05c-3.49-0.15-6.99,0-10.44,0.65
			c-6.86,0.3-13.74,0.05-20.6,0.19c-17.25,0.39-34.5,0.92-51.75,1.66c-2.62,0.11-5.23-0.92-7.85-0.1c-1.98-0.94,0.89-2.92-0.83-3.92
			c2.78-4.8,5.21-9.76,6.94-15.04c1.52,2.78,3.88,3.97,7.02,4.19c15.5,1.05,31,1.88,46.43-0.63c3.48-0.57,7.41-1.73,10.14,0.09
			C278.43,676.19,282.11,675.95,286,676.01z"/>
		<path class="st16" d="M285,686.01c1.96-1.23,4.15-1,6.31-1c17.31,0,34.7,1.02,51.91-0.29c17.25-1.31,34.45-1.7,51.69-1.67
			c3.73,0.01,3.31-3.62,5.17-5.2c2.9,4.41,5.81,8.82,8.71,13.23c-3.77,4.37-9.28,3.57-13.9,3.72c-15.96,0.54-31.95,0.21-47.92,0.19
			c-0.77,0-1.53-0.27-2.3-0.41c0-0.54-0.01-1.07-0.01-1.61c17.49,0,34.99,0,52.48,0c-1.51-2.49-3.2-1.92-4.76-1.93
			c-13.65-0.05-27.3,0.1-40.94-0.08c-7.32-0.1-14.9-0.02-21.76,1.45c-12.94,2.77-25.74,1.18-38.57,1.46
			c-13.6,0.29-27.08,2.16-40.68,2.22c-2.51,0.01-4.09-0.38-3.58-3.31c4.02-0.27,8.45-0.26,11.21-0.24c-2.9,0.25-7.5-0.45-11.21,0.24
			c-9,0.48-16.92,2.93-25.13,2.86c-0.98-0.01-1.98,0.45-2.93,0.34c-6.31-0.75-12.33,0.9-18.43,2c-0.84,0.15-2.26,0.52-2.52-0.75
			c-0.23-1.13,1.1-1.13,1.83-1.63c2.36-1.61,5.08-3.16,5.35-6.57c1.04-1.56,2.46-1.86,5.12-1.13c2.55,0.69,4.79-1.02,7.31-0.89
			c15.54,0.79,31.03-1.16,46.56-0.97C271.01,686.87,278.01,686.87,285,686.01z"/>
		<path class="st17" d="M274.01,646.01c-2.55,1.84-5.21,2.39-8.35,1.44c-3.9-1.18-7.72,0.96-11.73,0.65
			c-8.54-0.65-17.16,0.74-25.69-1.03c-2.11-0.44-4.65-0.28-5.88,1.74c-3.16,5.17-3.67,2.01-4.4-1.19c-0.14-0.59-0.64-1.09-0.97-1.63
			c0.03-0.66,0.05-1.33,0.08-1.99c1.23-7.86-0.12-15.83,0.78-24.34c4.92,6.67,11.92,3.45,17.81,4.81c3.67,0.84,7.62-0.46,11.39,0.54
			C256.02,632.01,265.02,639.01,274.01,646.01z"/>
		<path class="st18" d="M390.98,654.01c-6-0.87-3.7-5.69-4.23-10.49c-1.67,3.92-4.26,4.72-6.86,4.4c-5-0.62-10.43,2.19-15.09-2.53
			c-1.34-1.36-5.08-1.01-7.48,0.74c-1.77,1.29-4.04,1.49-5.66,0.47c-4.79-2.98-9.12-1.78-13.35,0.88c-3.21,2.03-4.33,0.91-4.31-2.47
			c6.34-5,12.67-9.99,19.01-14.99c1.01,0.05,2.21-0.65,2.93-0.25c7.53,4.13,15.8,2.3,23.76,2.81c-4.43-0.21-8.87,0.02-13.29-0.17
			c-5.22-0.22-5.22-0.19-3.17-5.14c0.32-0.45,0.74-0.78,1.23-1.03c4.58-1.16,9.25-0.79,13.85-0.42c4.2,0.34,7.47,4.26,8.93,9.8
			c-0.44-3.12-0.94-6.42-0.64-9.73c0.29-3.3-1.07-6.96,2.3-10.52c1.34,7.62-0.21,14.7,0.98,21.6c0.67,5.02,1.35,10.04,2.02,15.07
			C391.15,652.49,391,653.22,390.98,654.01z"/>
		<path class="st19" d="M363.83,626.86c0.6,1.89-0.82,3.16-1.16,5.18c6.22,0,12.24,0,18.27,0c-9.38,0.26-19,2.98-27.94-2.01
			c12.72-10.65,24.17-22.55,34.84-35.23c1.48-1.77,3.37-3.2,5.06-4.78c-2.36,15.57-3.64,31.21-3.01,46.97
			c-2-4.44-0.47-9.11-0.88-13.65c-0.19-2.07-0.03-4.18-0.86-6.25c0,7.24,0,14.48,0,21.72c-0.05-4.07-4.88-5.29-5.36-9.2
			c-0.22-1.74-2.62-2.68-4.88-2.62C373.27,627.1,368.63,627.02,363.83,626.86c-0.43-0.4-0.49-0.93-1.03-0.81
			c-0.07,0.02-0.08,0.22,0.05,0.38c0.16,0.21,0.46,0.27,0.73,0.41C364.11,627.09,364.12,627.08,363.83,626.86z"/>
		<path class="st19" d="M247.03,625.01c-5.83,1.71-11.7,1.38-17.56,0.29c-5.15-0.96-7.77-0.48-9.68,2.15
			c-1.8-1.86,0.18-4.54-1.78-6.93c0,6.47,0.05,12.4-0.03,18.33c-0.02,1.74,0.65,3.68-0.93,5.16c0.66-18.09-0.58-36.07-3.05-53.98
			C224.5,602.17,235.93,613.43,247.03,625.01z"/>
		<path class="st11" d="M121.03,742.01c0.73-3.16-1.16-2.11-2.2-1.16c-2.24,2.05-3.51,0.44-4.94-0.95
			c6.07-1.92,12.13-3.84,18.2-5.75c3.8,2.68,0.66,3.68-2.32,5.32c10.17,1.41,19.27-0.01,28.59-0.64c-0.62,2.57-2.15,2.01-3.33,2.18
			c-1.67,0.72-3.33,0.81-5,0c-8.02-0.26-16.02,0.19-24,1C124.37,740.39,122.7,743.54,121.03,742.01z"/>
		<path class="st16" d="M412.98,700.01c-0.67,0-1.33,0-2,0c-3.38-0.24-2.89-2.8-3-5c0.42-1.05,1.19-1.72,2.24-2.11
			c2.07,1.87,4.13,3.75,5.6,6.16C414.87,699.38,413.93,699.7,412.98,700.01z"/>
		<path class="st20" d="M548.67,522.34c0,6.86,0,13.72,0,20.58c-0.17,0-0.33,0-0.5-0.01c0-6.91,0-13.82,0-20.73
			C548.34,522.24,548.51,522.29,548.67,522.34z"/>
		<path class="st11" d="M180.97,710.9c-0.91,3.63-4.66,4.04-6.95,6.11c0-0.62,0-1.23,0.01-1.85
			C176.3,713.67,178.2,711.58,180.97,710.9z"/>
		<path class="st11" d="M185.95,706.71c-0.99,2.22-2.31,4.04-5.02,4.22C182.19,709.04,183.82,707.57,185.95,706.71z"/>
		<path class="st11" d="M188.96,703.9c0.27,1.03,1.67,2.04,0.06,3.11c-0.46-0.88-1.3-0.99-2.16-1.06
			C187.56,705.27,188.26,704.58,188.96,703.9z"/>
		<path class="st21" d="M373.95,222.75c0.02,0.43,0.04,0.85,0.06,1.28c-0.98-0.63-2.67-1.11-2.08-2.46
			C372.24,220.87,373.42,221.99,373.95,222.75z"/>
		<path class="st11" d="M236.86,739.01c-9.26,0-17.58,0.03-25.89-0.03c-1.19-0.01-3.11,0.72-3.34-1.09
			c-0.21-1.71,1.63-1.56,2.89-1.91c5.56-1.52,11.22-0.88,16.84-0.94c8.65-0.09,17.3,0.1,25.94-0.07c5.62-0.11,11.27-1.24,16.83-0.84
			c14.43,1.05,28.85,0.82,43.28,0.9c1.42,0.01,3.75-0.44,3.72,1.39c-0.04,2.28-2.51,1.53-4.02,1.56c-4.82,0.09-9.65,0.17-14.47,0.01
			C277.72,737.26,256.84,739.55,236.86,739.01z"/>
		<path class="st11" d="M353.77,734.01c25.74,0.17,51.46-1.76,77.21-1c1.33,0.04,2.67-0.04,3.99,0.06c1.17,0.08,2.54,0.33,2.39,1.87
			c-0.13,1.36-1.5,0.95-2.42,1.06c-0.49,0.06-1,0.02-1.5,0.01c-33.77-0.46-67.51,1.78-101.28,0.96c-1.85-0.04-5.19,0.94-5.17-1.28
			c0.02-2.92,3.4-1.57,5.29-1.61C339.45,733.91,346.61,734.01,353.77,734.01z"/>
		<path class="st7" d="M276.01,749.01c-0.83,1.84-2.42,2.02-4.18,2.01c-9.15-0.03-18.3-0.01-27.45-0.01c-1.52,0-3.11,0.12-3.37-2
			C252.68,748.21,264.34,748.21,276.01,749.01z"/>
		<path class="st11" d="M276.01,749.01c-11.66,0-23.33,0-34.99,0c-0.63-0.06-1.27-0.13-1.9-0.19c0-0.27,0-0.54,0-0.81
			c7.65,0,15.3,0,22.96,0c4.83,0,9.66,0,14.49,0.02c0.12,0,0.32,0.15,0.34,0.25C277,748.99,276.41,748.89,276.01,749.01z"/>
		<path class="st8" d="M443.98,750.01c-0.82,1.07-2,1-3.15,1c-10.23,0-20.46,0-30.69,0c-1.15,0-2.34,0.07-3.15-1
			C419.31,750.01,431.64,750.01,443.98,750.01z"/>
		<path class="st7" d="M150.03,741.01c1.67,0,3.33,0,5,0c-5.97,3.34-12.42,1.53-18.68,1.7C140.76,740.96,145.7,743.38,150.03,741.01
			z"/>
		<path class="st7" d="M121.03,742.01c1.67,0.24,3.33-2.16,5,0C124.37,741.77,122.7,744.17,121.03,742.01z"/>
		<path class="st7" d="M138.03,770.01c2.55-0.75,5.14-1.05,7.83-1.03c15.44,0.07,30.87,0,46.31,0.08c1.75,0.01,4.22-1.09,4.85,1.95
			c-16.74,0-33.47,0.12-50.21-0.11C143.93,770.86,140.54,774.02,138.03,770.01z"/>
		<path class="st7" d="M366.99,768.01c1.07-2.33,3.18-2,5.14-2c14.57,0,29.14,0,43.7,0c1.97,0,4.08-0.34,5.14,2
			C402.98,768.01,384.99,768.01,366.99,768.01z"/>
		<path class="st8" d="M477.03,777.06c-1.22-0.35-2.76,0.58-3.66-1.35C475.18,774.78,476.44,774.72,477.03,777.06z"/>
		<path class="st8" d="M470.69,749.45c10.19,0,20.37,0,30.56,0c0,0.33,0.01,0.67,0.01,1c-10.19,0-20.37,0-30.56,0
			C470.7,750.11,470.69,749.78,470.69,749.45z"/>
		<path class="st4" d="M390.46,809.46c-1.21,0.37-2.43,0.74-3.63,1.13c-0.63,0.21-0.47,0.26-0.91,2.4
			c-0.23,1.13-1.09,1.97-2.63,1.39c-6.05-2.29-12.08-2.29-18.09,0.29c-1.01,0.43-2.28,0.32-3.43,0.32
			c-15.46,0.02-30.91,0.01-46.37,0.01c-0.83,0-1.67,0.02-2.49-0.05c-1.21-0.11-2.43-0.45-2.46-1.91c-0.03-1.48,1.18-1.78,2.39-2
			c2.72-0.49,5.22,0.86,7.85,0.93c13.76,0.34,27.52-0.11,41.25-1.04c1.27-0.09,2.5-0.8,3.74-1.24c2.95-1.06,5.89-1.26,8.57,0.62
			c3.41,2.39,6.09,3.03,9.13-1.02c1.01-1.35,4.61-0.76,7.02-1.06C390.42,808.64,390.44,809.05,390.46,809.46z"/>
		<path class="st4" d="M262.21,817.92c-2.53,0.49-4.8,1.85-7.59,0.51C257.18,816.68,259.53,816.46,262.21,817.92z"/>
		<path class="st4" d="M261.95,818.15c2.97,0,5.88,0,8.79,0C267.81,818.72,264.86,819.75,261.95,818.15z"/>
		<path class="st4" d="M281.82,817.49c-1.97,0.57-3.85,0.74-6.35,0.03C278.01,816.73,279.96,816.97,281.82,817.49z"/>
		<path class="st4" d="M339.13,816.42c-1.09,0.88-2.12,0.73-3.28,0.16C336.94,815.72,337.97,815.86,339.13,816.42z"/>
		<path class="st18" d="M329.99,648.01c0.95,1.71,0.27,3.09-1,4.25c-0.2,0.18-0.96,0.04-1.24-0.21c-1.17-1.06-0.08-2.04,0.24-3.04
			C328.43,648.21,329.17,648.03,329.99,648.01z"/>
		<path class="st18" d="M324,651.02c0.79,0.27,2.39,0.31,1.12,1.57c-0.56,0.55-2.58,2.2-3.12-0.58
			C322.43,651.21,323.18,651.04,324,651.02z"/>
		<path class="st13" d="M310,656.02c-1.4,1.66-3.32,0.75-5,0.99C306.4,655.36,308.31,656.25,310,656.02z"/>
		<path class="st16" d="M334.99,703.01c1.74-3.12,10.97-4.47,13.28-1.87c0.27,0.3-0.17,1.23-0.28,1.87
			C343.66,703.01,339.33,703.01,334.99,703.01z"/>
		<path class="st16" d="M334,705.01c0-0.33,0-0.67,0-1c4.92,0,9.85,0,14.77,0c0.01,0.33,0.01,0.67,0.02,1
			C343.86,705.01,338.93,705.01,334,705.01z"/>
		<path class="st11" d="M189.02,707.01c0.33,0.33,0.67,0.67,1,1c-0.13,1.41-0.5,2.68-2.23,2.67c-0.37,0-1.03-0.52-1.06-0.85
			C186.56,708.2,187.93,707.7,189.02,707.01z"/>
		<path class="st11" d="M175.7,718.22c2.31-3.03,3.56-1.59,5.26-0.23C178.97,719.24,177.54,717.43,175.7,718.22z"/>
		<path class="st11" d="M176.02,718.01c-1.14,1.43-2.62,1.02-4.11,0.81c0.17-1.29,1.36-1.3,2.11-1.81
			C174.46,717.82,175.2,717.99,176.02,718.01z"/>
		<path class="st16" d="M388.71,700.75c-9.88,0-19.77,0-29.65,0c0-0.17,0-0.33,0-0.5c9.91,0,19.82,0,29.72,0
			C388.76,700.41,388.74,700.58,388.71,700.75z"/>
		<path class="st10" d="M358.34,702.34c10.16,0,20.32,0,30.48,0c0,0.13,0.01,0.25,0.01,0.38c-10.28,0-20.56,0-30.85,0
			C358.11,702.59,358.22,702.46,358.34,702.34z"/>
		<path class="st10" d="M407.98,695.01c1.7,1.24,0.4,4.29,3,5C407.15,700.08,406.6,699.16,407.98,695.01z"/>
		<path class="st10" d="M417.93,705.45c-1.55,0.85-1.94,1.25-2.26,1.2c-0.63-0.09-1.21-0.56-1.03-1.28c0.08-0.34,0.65-0.8,0.97-0.78
			C416.2,704.65,416.78,705.01,417.93,705.45z"/>
		<path class="st15" d="M285.98,676c0.47-2.56,1.94-2.99,3.75-2.99c3.31,0.01,6.61-0.04,9.92,0.03c1.04,0.02,2.75-0.47,2.75,1.18
			c0,1.69-1.68,1.76-3.01,1.77C294.93,676.02,290.47,676,285.98,676z"/>
		<path class="st18" d="M343.07,652.28c7.21,0,14.43,0,21.64,0c0,0.13,0.01,0.26,0.01,0.39c-7.21,0-14.43,0-21.64,0
			C343.07,652.54,343.07,652.41,343.07,652.28z"/>
		<path class="st13" d="M363.73,654.74c-6.9,0-13.79,0-20.69,0c0-0.17,0-0.33,0-0.5c6.91,0,13.82,0,20.74,0
			C363.76,654.41,363.74,654.58,363.73,654.74z"/>
		<path class="st12" d="M285,686.01c-7,1.62-14,1.62-21,0C271.01,686.01,278.01,686.01,285,686.01z"/>
		<path class="st16" d="M288.11,678.24c3.92,0,7.83,0,11.75,0C295.95,679.82,292.03,678.89,288.11,678.24z"/>
		<path class="st15" d="M246.35,692.34c4.83,0,9.66,0,14.49,0c0.01,0.13,0.02,0.25,0.02,0.38c-4.95,0-9.9,0-14.86,0
			C246.13,692.59,246.24,692.46,246.35,692.34z"/>
		<path class="st19" d="M219.54,634.66c-0.15-0.72-0.41-1.22-0.27-1.54c0.13-0.3,0.69-0.4,1.06-0.59c0.12,0.28,0.4,0.65,0.31,0.83
			C220.45,633.76,220.06,634.07,219.54,634.66z"/>
		<path class="st18" d="M359.58,628.94c1.65-2.62,2.33-4.58,4.56-5.95C364.35,626.07,363.83,628.14,359.58,628.94z"/>
		<path class="st18" d="M384.9,621.93c1.26,2.14-0.32,3.49,0.07,5.39C382.48,625.27,384.01,623.91,384.9,621.93z"/>
		<path class="st17" d="M240.15,620.67c0.37,0.47,0.95,0.91,1.1,1.47c0.16,0.63-0.55,0.72-0.89,0.43c-0.45-0.39-0.73-0.99-1.08-1.49
			C239.52,620.96,239.77,620.85,240.15,620.67z"/>
	</g>
</g>
</svg>
