<svg width="82" height="82" viewBox="0 0 82 82" fill="none" xmlns="http://www.w3.org/2000/svg">
<path d="M55.0515 51.744C54.8135 51.7441 54.5779 51.6973 54.358 51.6063C54.1382 51.5153 53.9384 51.3819 53.7702 51.2137C53.6019 51.0454 53.4685 50.8457 53.3775 50.6258C53.2865 50.406 53.2397 50.1703 53.2399 49.9324L53.2415 31.258L28.1657 56.3337C27.8262 56.6733 27.3656 56.8641 26.8854 56.8641C26.4053 56.8641 25.9447 56.6733 25.6052 56.3337C25.2656 55.9942 25.0749 55.5337 25.0749 55.0535C25.0749 54.5733 25.2656 54.1128 25.6052 53.7732L50.6809 28.6974L32.0065 28.699C31.5261 28.699 31.0653 28.5082 30.7256 28.1684C30.3858 27.8287 30.195 27.3679 30.195 26.8875C30.195 26.407 30.3858 25.9462 30.7256 25.6065C31.0653 25.2667 31.5261 25.0759 32.0065 25.0759L55.0515 25.0759C55.2894 25.0757 55.525 25.1225 55.7449 25.2135C55.9647 25.3045 56.1645 25.4379 56.3327 25.6062C56.501 25.7744 56.6344 25.9742 56.7254 26.194C56.8164 26.4139 56.8632 26.6495 56.863 26.8875L56.8631 49.9324C56.8632 50.1703 56.8164 50.406 56.7254 50.6258C56.6344 50.8457 56.501 51.0454 56.3327 51.2137C56.1645 51.3819 55.9647 51.5153 55.7449 51.6063C55.525 51.6973 55.2894 51.7441 55.0515 51.744Z" fill="white"/>
</svg>
